<?xml version="1.0" encoding="utf-8"?>
<!-- Generator: Adobe Illustrator 19.2.1, SVG Export Plug-In . SVG Version: 6.00 Build 0)  -->
<svg version="1.1" xmlns="http://www.w3.org/2000/svg" xmlns:xlink="http://www.w3.org/1999/xlink" x="0px" y="0px" width="95.8px"
	 height="74px" viewBox="0 0 95.8 74" enable-background="new 0 0 95.8 74" xml:space="preserve">
<g id="Layer_2">
	<g>
		<path fill="#414042" d="M83.1,23.9c-1.8-4.2-4.5-8-7.8-11.1c-1.1-1.2-2.4-2.2-3.7-3.1c-0.6-0.4-1.2-0.8-1.8-1.2
			c-5.3-3.4-11.6-5.7-18-6.7c-0.2-0.1-0.4-0.1-0.6-0.2c-3.7-1-7.4-1.1-11.1,0c-3.5,1-6.6,3-9.4,5.3c-0.2,0.2-0.4,0.4-0.7,0.6
			c-2.3,1.3-4.1,3.2-5.2,5.6c-0.1,0.3-0.2,0.5-0.4,0.8c-0.3,0.5-0.7,1-1,1.5c-0.3,0.3-0.6,0.6-0.9,0.9c-7.7,7.5-12.1,19.6-7.2,29.8
			c0.7,1.4,1.5,2.6,2.4,3.7c0.3,5.2,1.6,10.3,4.7,14.4c0.7,1.7,1.7,3.4,3.3,4.3c0.7,0.4,1.5,0.6,2.4,0.7c4.2,2.5,9.1,3.5,14,3.2
			c10.5,1.1,21.5-3.2,29.6-9.9c5.4-4.5,9.7-10.3,12-17C85.9,38.4,86,30.6,83.1,23.9z M81.7,34.4c-0.3,1.6-0.7,3-1.3,4.5
			c0.2-2.2,0.2-4.4-0.1-6.6c0-0.2,0-0.3-0.1-0.5c0.4-2.3,0.5-4.5,0.3-6.9c-0.1-1.1-0.3-2.2-0.5-3.3c0.2,0.2,0.4,0.4,0.6,0.5
			c1,1.1,1.2,2.5,1.4,4C82.3,28.9,82.2,31.7,81.7,34.4z M81.5,22.1c-0.5-0.7-1.2-1.2-1.8-1.7c-0.3-1.1-0.7-2.1-1.2-3.1
			C79.6,18.8,80.6,20.4,81.5,22.1z M78.7,39.1c0-0.3,0-0.7-0.1-1c0-0.2,0.1-0.4,0.1-0.6c0.2-0.7,0.5-1.4,0.7-2.1
			c0.1,1.2,0.2,2.5,0.1,3.7c-0.1,1-0.3,2-0.5,3.1c0,0.1-0.1,0.1-0.1,0.2c-0.1,0.3-0.2,0.5-0.3,0.8C78.8,41.7,78.8,40.4,78.7,39.1z
			 M79.1,33.5v-0.7c0,0.1,0,0.3,0.1,0.4C79.2,33.4,79.1,33.5,79.1,33.5z M75.2,19.2c-0.3-0.6-0.7-1.1-1.1-1.7
			c1.1,0.7,2.1,1.4,3.2,2.1c0.5,0.4,1.1,0.8,1.7,1.2c0.8,2.7,1,5.6,0.8,8.4C78.9,25.7,77.3,22.3,75.2,19.2z M72.3,57.9
			c-0.8,0.4-1.6,0.7-2.5,0.9c0.7-0.6,1.4-1.1,2.1-1.8c2-2,3.6-4.4,4.8-7c0,0.4,0,0.9,0,1.3C75.5,53.7,74.1,56,72.3,57.9z M76.4,53.5
			c-0.3,1.3-1,2.3-2,3.1C75.2,55.6,75.8,54.6,76.4,53.5z M23.6,52.1c0.3,0.4,0.6,0.7,1,1c0,0.3,0,0.7,0,1
			C24.2,53.5,23.9,52.8,23.6,52.1z M23.8,54.8c-0.1-0.1-0.1-0.2-0.2-0.2c0,0,0.1,0,0.1,0.1C23.7,54.7,23.7,54.8,23.8,54.8z M23,50
			c-0.1-0.2-0.1-0.4-0.1-0.6c0.5,0.8,1.2,1.6,1.9,2.4c0,0.1,0,0.2,0,0.3C24.1,51.5,23.5,50.8,23,50z M42.3,7c0.7,0,1.5,0,2.2,0.1
			c-1.1,0-2.3,0.1-3.4,0.2C41.5,7.2,41.9,7.1,42.3,7z M41.3,6.3c0.3-0.1,0.5-0.1,0.8-0.2c-0.2,0-0.4,0.1-0.5,0.1
			C41.4,6.3,41.4,6.3,41.3,6.3z M76.4,26.1c0-0.1-0.1-0.2-0.1-0.3c-0.1-0.5-0.2-1.1-0.4-1.6c-0.9-3.4-2.9-6.3-5.6-8.5
			c-0.5-0.4-1.1-0.9-1.7-1.3c0.9,0.5,1.8,0.9,2.6,1.4c0.2,0.2,0.4,0.4,0.6,0.6c2.4,3.1,4.4,6.6,5.7,10.3c0.6,2.3,0.9,4.8,0.8,7.2
			c0,0.5-0.1,1-0.1,1.5c-0.2-0.8-0.4-1.5-0.6-2.3C77.7,30.8,77.4,28.4,76.4,26.1z M63.8,58.7c-0.3-0.1-0.7-0.1-1-0.1
			c2.4-1.3,4.6-3,6.5-5c1-1,1.8-2.1,2.6-3.2c-0.7,1.3-1.5,2.6-2.3,3.9C67.8,56,65.9,57.5,63.8,58.7z M67.3,58.5
			c2.3-1.3,4.5-2.8,6.3-4.7c-1.6,2.1-3.5,3.9-5.7,5.3c-0.4,0-0.8,0-1.1,0C67,58.9,67.2,58.7,67.3,58.5z M66.6,59.9
			c-0.3,0.1-0.6,0.3-0.9,0.4c0.2-0.2,0.3-0.3,0.4-0.5C66.3,59.8,66.5,59.9,66.6,59.9z M47.3,62.1c-1.9-0.3-3.8-0.8-5.6-1.3
			c0.8,0.1,1.5,0.1,2.3,0.2c2.3,0.3,4.7,0.2,7-0.6c0.3-0.1,0.7-0.2,1-0.4c1.6,0.1,3.2,0,4.9-0.2c-0.3,0.2-0.6,0.5-1,0.7
			C53.1,61.3,50.2,61.9,47.3,62.1z M52.7,62.4C52.7,62.4,52.7,62.4,52.7,62.4L52.7,62.4C52.6,62.4,52.7,62.4,52.7,62.4z M48.4,64.4
			c-2.3,0.1-4.6,0-6.9-0.5c2.8,0.1,5.6,0,8.3-0.3c0.2,0,0.5-0.1,0.8-0.1C49.9,63.8,49.1,64.1,48.4,64.4z M49,65.2
			c-0.7,0.2-1.4,0.4-2.1,0.6c0,0-0.1,0-0.1,0c0.6-0.2,1.2-0.4,1.7-0.6C48.6,65.2,48.8,65.2,49,65.2z M52.2,56.9
			c1.3-0.1,2.6-0.3,3.8-0.6c-0.4,0.4-0.9,0.8-1.4,1.2c-0.9,0.2-1.7,0.3-2.6,0.3c-0.5,0-1,0-1.5-0.1C51.1,57.5,51.7,57.2,52.2,56.9z
			 M52,54.5c1-0.4,2-0.9,2.9-1.4c0.3-0.1,0.6-0.2,0.9-0.3c-0.3,0.3-0.6,0.7-0.9,1C54,54,53,54.3,52,54.5z M60.2,58
			c0.2-0.1,0.5-0.1,0.7-0.2c0.8-0.2,1.6-0.5,2.4-0.8c0,0,0,0,0,0c-1.1,0.6-2.3,1-3.5,1.3C59.9,58.3,60,58.1,60.2,58z M59.9,56.8
			c0.3-0.1,0.6-0.3,0.9-0.4c-0.1,0-0.1,0.1-0.2,0.2C60.4,56.6,60.2,56.7,59.9,56.8z M59.2,56.2c1.1-0.8,2.2-1.8,3.2-2.8
			c0.9-0.6,1.7-1.2,2.4-1.9c-0.4,0.5-0.7,1-1.1,1.5c-0.3,0.4-0.6,0.8-1,1.2C61.7,55,60.5,55.7,59.2,56.2z M56.4,57.1
			c-0.1,0-0.2,0-0.3,0.1c0.2-0.2,0.4-0.4,0.6-0.6c0.2-0.2,0.5-0.5,0.7-0.7c0.7-0.2,1.4-0.5,2.1-0.8C58.5,55.8,57.5,56.5,56.4,57.1z
			 M58.6,58.3c-0.2,0.1-0.3,0.3-0.5,0.4c-1.2,0.2-2.4,0.4-3.6,0.4c-0.2,0-0.5,0-0.7,0c0.3-0.1,0.7-0.3,1-0.4
			C56.1,58.7,57.4,58.6,58.6,58.3z M52.6,58.8c-0.1,0-0.2,0.1-0.3,0.1c-0.2,0.1-0.5,0.2-0.7,0.2c-1.2-0.1-2.4-0.2-3.6-0.4
			c0.1,0,0.2-0.1,0.3-0.1c0.7,0,1.4,0,2.1,0C51.1,58.7,51.9,58.8,52.6,58.8z M48.9,57.6c-1.3-0.2-2.7-0.4-4-0.7c0.3,0,0.7,0,1,0
			c0.5,0,1-0.1,1.4-0.1c1,0.2,2,0.2,3.1,0.2C50,57.2,49.5,57.4,48.9,57.6z M46.3,59.2c1,0.2,2,0.4,3,0.5c-1.8,0.3-3.7,0.5-5.6,0.4
			c-1-0.1-1.9-0.3-2.9-0.6C42.6,59.7,44.5,59.5,46.3,59.2z M40.6,62.2c0-0.3,0-0.6,0-0.9c1.2,0.4,2.4,0.7,3.6,1h-1.4
			C42.1,62.3,41.4,62.2,40.6,62.2z M56.6,62.4c-0.2,0.1-0.5,0.2-0.7,0.3c-0.3,0-0.6,0-0.8,0C55.6,62.7,56.1,62.5,56.6,62.4z
			 M56,61.8c0.2-0.2,0.3-0.3,0.5-0.5c1.7-0.6,3.4-1.2,5-2.1c0.4,0,0.8,0.1,1.2,0.1c-0.7,0.4-1.5,0.8-2.2,1.2
			C59.1,61.1,57.5,61.5,56,61.8z M63.6,60.3c0.5-0.2,0.9-0.4,1.4-0.6c0.1,0,0.1,0,0.2,0c0,0,0,0,0.1,0c-0.5,0.5-0.9,0.9-1.4,1.4
			c-1.1,0.4-2.3,0.8-3.6,1C61.4,61.6,62.5,61,63.6,60.3z M63.5,56.1c1.9-1,3.6-2.4,5.1-4c0.2-0.2,0.4-0.5,0.7-0.8
			c-0.7,1.1-1.6,2.1-2.7,3C65.6,55,64.6,55.6,63.5,56.1z M70.7,50.4c0.2-0.4,0.4-0.8,0.5-1.2c0.2-0.4,0.3-0.9,0.5-1.3
			c0.9-1.5,1.7-3.1,2.4-4.8c-0.1,0.5-0.2,0.9-0.4,1.4C73,46.6,72,48.6,70.7,50.4z M74.6,46.7c0.2-0.5,0.4-1,0.6-1.5
			c0.5-0.9,1-1.8,1.5-2.7c0,0.2-0.1,0.4-0.1,0.6c-0.8,2.1-1.7,4-2.9,5.9c-0.1,0.2-0.2,0.3-0.3,0.5C73.8,48.6,74.2,47.7,74.6,46.7z
			 M72.1,28.5c0-0.2-0.1-0.4-0.1-0.6c0.1,0.2,0.3,0.3,0.4,0.5c0.9,2.5,1.6,5.2,1.9,7.9c-0.3,1.2-0.8,2.2-1.5,3.2
			c0-1.4-0.1-2.8-0.2-4.2c0-0.2,0-0.4,0-0.6c0-1.2,0-2.4-0.1-3.5C72.5,30.3,72.4,29.4,72.1,28.5z M69.6,20.7
			c-0.6-0.9-1.1-1.8-1.8-2.7c0.4,0.3,0.9,0.6,1.3,0.9c2.5,1.8,4.8,4,6.2,6.8c0.1,0.1,0.1,0.3,0.2,0.4c0.1,0.5,0.2,1,0.2,1.5
			c0,0.4,0.1,0.8,0.1,1.1c-1.5-2.8-3.5-5.4-5.8-7.6C69.9,20.9,69.7,20.8,69.6,20.7z M69.8,24.3L69.8,24.3c-0.3-0.5-0.5-1-0.8-1.4
			c0.1,0.1,0.2,0.2,0.3,0.3C69.4,23.5,69.6,23.9,69.8,24.3z M66.4,16.1c-1.1-1.4-2.3-2.7-3.5-3.9c0,0,0,0-0.1,0
			c0.4,0.2,0.8,0.3,1.2,0.5c3,1.4,5.9,3.2,8.1,5.8c1.2,1.4,2.1,3.1,2.7,4.8C72.7,20.3,69.7,18,66.4,16.1z M67.8,20.8
			C67.8,20.8,67.8,20.8,67.8,20.8c0-0.1-0.1-0.1-0.1-0.1C67.8,20.7,67.8,20.8,67.8,20.8z M67.7,22.4C67.7,22.4,67.6,22.4,67.7,22.4
			c-0.3-0.4-0.6-0.8-0.8-1.2C67.1,21.6,67.4,22,67.7,22.4z M64.6,16c0.1,0.1,0.2,0.1,0.3,0.2c0.2,0.2,0.3,0.3,0.5,0.5
			c0.1,0.1,0.2,0.2,0.3,0.3C65.3,16.7,65,16.4,64.6,16z M65.5,18.7c0,0-0.1-0.1-0.2-0.2c0,0,0,0,0.1,0
			C65.5,18.6,65.5,18.6,65.5,18.7C65.5,18.6,65.5,18.6,65.5,18.7z M55.1,18.2c-0.4-0.2-0.8-0.4-1.1-0.6c0.1-0.2,0.2-0.4,0.4-0.7
			c2.4,1,4.7,2.3,6.7,3.7c0.2,0.2,0.5,0.3,0.7,0.5c-1.1-0.5-2.3-0.9-3.5-1.3c-0.1,0-0.2-0.1-0.2-0.1C57.1,19,56.1,18.5,55.1,18.2z
			 M57.3,21.5c-0.1-0.1-0.2-0.1-0.4-0.2c0,0,0.1,0,0.1,0C57.1,21.3,57.2,21.4,57.3,21.5z M55,30.2c0,0.2,0,0.4-0.1,0.6
			c-0.3-0.4-0.6-0.7-0.9-1.1c0-0.1,0.1-0.2,0.1-0.2C54.4,29.7,54.7,29.9,55,30.2z M54.4,28.4C54.4,28.3,54.4,28.3,54.4,28.4
			c0.1-0.1,0.1,0,0.2,0C54.5,28.4,54.5,28.4,54.4,28.4z M52.7,24.7c-0.1-0.1-0.2-0.1-0.2-0.1c-0.1-0.1-0.2-0.1-0.3-0.1
			c-0.4-0.2-0.8-0.3-1.1-0.5c-0.1-0.2-0.2-0.5-0.4-0.7c0.5,0,1.1,0,1.6,0.1c0.2,0,0.3,0,0.5,0c0.3,0.2,0.7,0.4,0.9,0.6
			c0.6,0.5,0.9,1.2,1.1,1.9C54.2,25.5,53.5,25.1,52.7,24.7z M53.9,30.7C53.9,30.7,53.9,30.7,53.9,30.7
			C53.9,30.7,53.9,30.7,53.9,30.7C53.9,30.7,53.9,30.7,53.9,30.7z M53.7,27.8c0,0.1,0,0.1,0,0.2v0c0-0.1-0.1-0.2-0.1-0.3
			C53.6,27.8,53.6,27.8,53.7,27.8z M52.2,27.4c0-0.1,0-0.2-0.1-0.4c0.1,0,0.1,0.1,0.2,0.1c0.1,0.2,0.2,0.3,0.3,0.5
			C52.4,27.5,52.3,27.4,52.2,27.4z M52.2,31.1C52.2,31.1,52.2,31.1,52.2,31.1C52.2,31.1,52.2,31.1,52.2,31.1
			C52.2,31.1,52.2,31.1,52.2,31.1C52.2,31.1,52.2,31.1,52.2,31.1z M52,25.7C52,25.7,52,25.7,52,25.7c-0.1-0.1-0.2-0.2-0.3-0.2
			c-0.1-0.1-0.1-0.3-0.1-0.4c0.5,0.2,0.9,0.4,1.3,0.7C52.6,25.7,52.3,25.7,52,25.7z M51.8,33.6c0.1-0.1,0.2-0.1,0.3-0.2
			c0.2,0.4,0.5,0.7,0.6,1.1c-0.1,0.1-0.3,0.2-0.4,0.3c0,0,0,0,0,0c-0.2,0.1-0.4,0.2-0.6,0.3c0-0.2,0-0.5-0.1-0.7c0,0,0-0.1,0-0.2
			C51.7,34,51.7,33.8,51.8,33.6z M52.3,30.3c0-0.4,0-0.8,0-1.1c0.3,0.2,0.5,0.4,0.8,0.7c-0.1,0.2-0.2,0.4-0.3,0.5
			C52.6,30.4,52.4,30.3,52.3,30.3z M50.2,30c-0.1-0.1-0.2-0.2-0.3-0.3c0.5-0.2,1-0.3,1.5-0.4c0.1,0.2,0.1,0.3,0.1,0.5
			c0,0.1,0,0.2,0,0.3C51,30.1,50.6,30.1,50.2,30z M50.7,34.3c-0.1,0.4-0.3,0.8-0.4,1.2c-0.6,0.1-1.2,0-1.8-0.2
			c-0.1,0-0.2-0.1-0.3-0.2c0.4-0.2,0.8-0.4,1.1-0.6c0.5,0,1-0.1,1.4-0.3C50.7,34.2,50.7,34.2,50.7,34.3z M51,26.9c0.1,0,0.2,0,0.3,0
			c0,0,0,0.1,0,0.1C51.2,27,51.1,27,51,26.9z M46.7,18.6c0.9-0.2,1.8-0.4,2.7-0.4c0.2,0,0.5,0,0.7,0.1c0.2,0,0.3,0.1,0.5,0.1
			c-0.6,0-1.1,0.1-1.6,0.2C48.2,18.5,47.4,18.6,46.7,18.6z M48.5,22.1c-0.3,0-0.7,0.1-1,0.1c0,0,0.1,0,0.1,0
			c0.2-0.1,0.5-0.1,0.7-0.2C48.4,22,48.4,22.1,48.5,22.1z M45.2,18.2c-0.5,0.2-1.1,0.4-1.6,0.7c-0.1,0-0.2,0.1-0.3,0.2
			c-0.2-0.1-0.3-0.3-0.4-0.4C43.7,18.5,44.5,18.3,45.2,18.2z M42.4,17.9c-0.1-0.1-0.1-0.3-0.2-0.4c0.9-0.1,1.8-0.1,2.7,0
			c-0.3,0-0.7,0.1-1,0.2C43.4,17.7,42.9,17.8,42.4,17.9z M42,16.7c0-0.1,0-0.2,0-0.3c2-0.6,4.1-0.8,6.2-0.8c1.3,0.6,2.5,1.2,3.8,1.8
			c0.1,0,0.1,0.1,0.2,0.1c-0.7-0.1-1.5-0.1-2.2-0.1C47.4,16.7,44.6,16.4,42,16.7z M40.7,16.8C40.7,16.8,40.7,16.8,40.7,16.8
			c0.1-0.1,0.3-0.2,0.5-0.2c0,0,0,0.1,0,0.1C41,16.8,40.9,16.8,40.7,16.8z M41.4,17.6c0.1,0.2,0.1,0.4,0.2,0.5
			c-0.2-0.2-0.3-0.3-0.5-0.5C41.2,17.6,41.3,17.6,41.4,17.6z M40.6,13.5c-1.4,0.4-2.6,1.1-3.7,2c-1,0.5-2,1.2-2.9,1.9
			c0.7-0.8,1.4-1.6,2.3-2.2c0.2-0.2,0.4-0.3,0.7-0.5c0.9-0.5,1.8-0.9,2.7-1.2c0.4,0,0.8,0,1.2,0.1C40.8,13.5,40.7,13.5,40.6,13.5z
			 M35.2,18.1c1.4-1,2.9-1.7,4.5-2.3c0,0.1,0,0.1,0,0.2c-0.2,0.2-0.5,0.4-0.7,0.6c-1,0.5-2,1-2.9,1.7c-0.9,0.4-1.7,1-2.5,1.6
			C34.2,19.2,34.7,18.6,35.2,18.1z M38.3,18.3c0.7-0.2,1.3-0.4,2-0.5c0,0.1,0.1,0.1,0.1,0.2c0.1,0.2,0.2,0.3,0.4,0.5
			C39,19,37.2,19.9,35.6,21C36.5,20.1,37.4,19.1,38.3,18.3z M41.5,19c0.2,0.1,0.3,0.3,0.5,0.4c-0.6,0.1-1.2,0.2-1.8,0.4
			c-0.6,0.1-1.2,0.3-1.8,0.5C39.4,19.8,40.4,19.4,41.5,19z M49.3,12.9c-1.4-0.1-2.8,0-4.2,0.1c0.3-0.2,0.6-0.4,0.9-0.5H46
			C47.1,12.5,48.2,12.7,49.3,12.9z M46.8,11c0.1,0,0.2-0.1,0.3-0.1C47,10.9,47,10.9,46.8,11C46.9,11,46.8,11,46.8,11z M59.5,17.1
			c0.2,0.1,0.4,0.3,0.5,0.4c-1.7-0.8-3.4-1.4-5.2-1.9c0,0,0,0,0,0C56.4,16.1,57.9,16.6,59.5,17.1z M54.9,14.9c0-0.1,0-0.3,0-0.4
			c0.3,0.1,0.5,0.2,0.8,0.3c0.4,0.2,0.9,0.4,1.3,0.7c-0.2-0.1-0.5-0.1-0.7-0.2C55.9,15.2,55.4,15,54.9,14.9z M57.1,13.4
			c-0.8-0.3-1.5-0.6-2.3-0.8c-0.1-0.3-0.2-0.7-0.4-1c0.3,0.1,0.5,0.2,0.8,0.2c1.1,0.4,2.3,0.8,3.4,1.3c1.8,0.9,3.6,2,5.1,3.3
			c0.1,0.2,0.3,0.3,0.4,0.5c-1-0.5-1.9-1-2.9-1.4C59.9,14.7,58.5,14,57.1,13.4z M60.1,12.9c-0.3-0.2-0.7-0.3-1-0.5
			c-1.2-0.6-2.5-1.1-3.8-1.5c-0.5-0.2-1-0.3-1.5-0.5c-0.1-0.2-0.3-0.4-0.4-0.5c1,0,2,0.2,3,0.4c0.2,0.1,0.5,0.2,0.7,0.3
			C58.1,11.4,59.1,12.1,60.1,12.9z M59.9,11.3c0,0,0.1-0.1,0.1-0.2c0.3,0.1,0.6,0.2,1,0.3c0.8,0.7,1.5,1.4,2.2,2.1
			C62.2,12.8,61.1,12,59.9,11.3z M53.2,17.2c-0.1,0-0.2-0.1-0.2-0.1c-0.1-0.3-0.3-0.6-0.4-0.8c0.3,0.1,0.7,0.2,1,0.4
			C53.5,16.8,53.4,17,53.2,17.2z M55.5,20.4C55.6,20.4,55.6,20.4,55.5,20.4c-0.2,0-0.4,0-0.7,0c-0.5-0.2-1-0.3-1.4-0.4
			C54.1,20.1,54.8,20.2,55.5,20.4z M53.4,22.6c-0.1,0-0.3,0-0.4,0c-0.1,0-0.2-0.1-0.3-0.2c0.1,0,0.3,0,0.4,0
			C53.1,22.5,53.2,22.6,53.4,22.6z M53.4,15.4c-0.7-0.2-1.5-0.3-2.2-0.4c-0.1-0.1-0.3-0.2-0.4-0.3c1.1,0.2,2.1,0.4,3.2,0.7
			c0,0,0,0,0,0.1C53.8,15.4,53.6,15.4,53.4,15.4z M51.6,16.3C51.6,16.3,51.6,16.3,51.6,16.3c-0.5-0.2-0.9-0.4-1.3-0.6
			c0.2,0,0.4,0,0.6,0.1C51.2,15.9,51.4,16.1,51.6,16.3z M49.4,13.7c1.5,0,3,0.2,4.5,0.5c0.1,0,0.2,0,0.2,0.1c0,0.2,0,0.3,0,0.5
			C52.6,14.3,51,13.9,49.4,13.7z M55.6,8.7l-0.4,0c-2-1.1-4.1-2-6.2-2.7c0.1,0,0.1,0,0.2,0c3.3,0.1,6.3,1.3,9,3.2
			C57.3,9,56.4,8.8,55.6,8.7z M52.8,8.3C52.2,8.1,51.6,8,51,7.8c-0.5-0.1-1-0.2-1.6-0.3c-0.9-0.3-1.9-0.6-2.8-0.8
			c-0.5-0.1-1-0.2-1.5-0.3c0.6-0.1,1.2-0.2,1.8-0.3C49,6.7,50.9,7.4,52.8,8.3z M52.3,10.1c-0.2,0-0.3-0.1-0.4-0.1c0.1,0,0.2,0,0.3,0
			C52.2,10,52.3,10.1,52.3,10.1z M53.4,11.3c0.2,0.3,0.4,0.6,0.5,1c-1.8-0.6-3.7-1-5.6-1.2c0.3-0.1,0.5-0.3,0.8-0.4
			C50.6,10.8,52,11,53.4,11.3z M47.9,14.3c-0.3,0-0.5-0.1-0.8-0.1c-0.2-0.1-0.3-0.1-0.5-0.2C47,14.1,47.5,14.2,47.9,14.3z M45,10.9
			c-0.7,0-1.3,0-2,0.1c0.8-0.1,1.6-0.2,2.4-0.3L45,10.9z M43.6,13.1c-0.1,0-0.2,0-0.2,0c0,0,0,0,0,0c0.2-0.2,0.4-0.4,0.6-0.5
			c0.2,0,0.4,0,0.5,0C44.1,12.7,43.9,12.9,43.6,13.1z M44.4,14.2c-0.4,0-0.7,0-1.1,0.1c0.1-0.1,0.2-0.1,0.3-0.2c0.1,0,0.2,0,0.3,0
			C44,14,44.2,14.1,44.4,14.2z M45.6,14.9c-1.2,0.1-2.4,0.3-3.6,0.6c0-0.1,0-0.2,0.1-0.2c0,0,0-0.1,0-0.1
			C43.3,15,44.4,14.9,45.6,14.9z M42.4,12.9c-0.2,0-0.3-0.1-0.5-0.1c0.2,0,0.5-0.1,0.7-0.1C42.6,12.7,42.5,12.8,42.4,12.9z
			 M51.9,20.6c-0.1,0-0.2,0-0.4,0c-0.1,0-0.2,0-0.4-0.1c0,0,0.1,0,0.1,0C51.5,20.5,51.7,20.5,51.9,20.6z M49.6,22
			C49.6,22,49.6,22,49.6,22c-0.1-0.1-0.2-0.2-0.3-0.3c0.5-0.1,1.1-0.2,1.6-0.3c0.2,0.1,0.5,0.2,0.8,0.3c-0.4,0.1-0.9,0.2-1.3,0.3
			C50.2,22,49.9,22,49.6,22z M49.9,23.5c-0.2-0.1-0.5-0.2-0.7-0.2c0.2,0,0.4,0,0.6,0C49.8,23.3,49.8,23.4,49.9,23.5z M50.7,24.9
			c0,0,0,0.1,0,0.1c-0.1-0.1-0.3-0.1-0.5-0.1C50.4,24.9,50.5,24.9,50.7,24.9z M53.5,21.2c0.4,0,0.9,0,1.3,0c0.5,0.2,1.1,0.4,1.6,0.7
			c-0.3-0.1-0.6-0.1-1-0.2c-0.4,0-0.8-0.1-1.2-0.1C54,21.5,53.8,21.4,53.5,21.2z M59.8,18.9c-1.1-0.7-2.4-1.3-3.6-1.9
			c2.1,0.7,4.1,1.6,6.1,2.7c0.3,0.3,0.7,0.7,1,1c0.6,0.6,1.1,1.2,1.6,1.9c-0.1,0-0.1-0.1-0.2-0.1C63.2,21.1,61.5,19.9,59.8,18.9z
			 M62.8,19c-0.3-0.3-0.6-0.6-0.8-0.8c0.7,0.4,1.5,0.7,2.2,1.1c0.4,0.4,0.8,0.8,1.2,1.3C64.5,20,63.6,19.5,62.8,19z M71.3,31.5
			c0.1,0.4,0.1,0.8,0.2,1.2c0,0.2-0.1,0.4-0.2,0.6c0-0.1,0-0.2,0-0.3c-0.2-2-0.7-4-1.4-5.9c0-0.2-0.1-0.3-0.1-0.5
			C70.5,28.1,71,29.8,71.3,31.5z M71.3,23.8c-0.1-0.2-0.2-0.4-0.3-0.6c0.7,0.8,1.4,1.6,2,2.4C72.4,24.9,71.8,24.3,71.3,23.8z
			 M73.4,27.3c1,1.3,1.8,2.8,2.4,4.3c0,0.6-0.1,1.3-0.2,1.9C75.2,31.3,74.4,29.2,73.4,27.3z M75.2,36.3c0,0.1,0,0.2-0.1,0.4
			c0-0.1,0-0.2,0-0.2c0-0.1,0.1-0.2,0.1-0.4C75.2,36.2,75.2,36.2,75.2,36.3z M76,36.1c0.1-0.6,0.2-1.2,0.3-1.9
			c0-0.3,0.1-0.6,0.1-0.9c0.1,0.5,0.3,1,0.4,1.5c0,0.5-0.1,1-0.2,1.6c-0.2,1.3-0.5,2.6-0.8,3.9C76,38.9,76.1,37.5,76,36.1z
			 M76.6,30.3c0-0.3,0-0.5,0-0.8c0.1,0.4,0.1,0.8,0.2,1.2C76.7,30.6,76.7,30.5,76.6,30.3z M76.4,41.2c0.3-1,0.5-2.1,0.7-3.1
			c0,0.6,0,1.1-0.1,1.7C76.9,40.3,76.6,40.7,76.4,41.2z M63.8,11.3c-1.1-0.5-2.3-1-3.5-1.4c-1.2-1-2.5-2-3.9-2.7
			c4.4,1.3,8.7,3.5,12.3,6.4C67.1,12.7,65.5,12,63.8,11.3z M55.6,6.1C55.3,6,55,5.9,54.7,5.9c0.5,0,0.9,0,1.4,0.1
			C57,6,57.8,6.1,58.7,6.2c2,0.8,3.9,1.8,5.7,2.9c1,0.8,1.9,1.5,2.9,2.4C63.7,9,59.7,7.2,55.6,6.1z M50.4,5.1
			c-1.9-0.2-3.9-0.3-5.8-0.1c0,0-0.1,0-0.2,0c0.9-0.2,1.8-0.4,2.7-0.5c2.7-0.2,5.3,0,7.9,0.6C53.5,5,52,5,50.4,5.1z M49.2,8.3
			c0.6,0.2,1.1,0.5,1.7,0.8h-0.3c-0.8,0-1.6,0.1-2.4,0.1c-2.3-0.4-4.7-0.5-7.1-0.4c-1.3-0.3-2.6-0.2-3.9,0.2c0.1,0,0.1-0.1,0.2-0.2
			c0.2,0,0.3-0.1,0.5-0.1C41.6,7.8,45.5,7.7,49.2,8.3z M41,9.5c0.3,0.1,0.6,0.2,1,0.3c0.3,0.1,0.4-0.1,0.5-0.3c0.9,0,1.8,0,2.7,0.1
			c-1.2,0.2-2.3,0.5-3.5,0.9c-3,0.7-5.9,1.8-8.5,3.4c-0.3,0.2-0.6,0.3-0.9,0.5c0.7-0.9,1.4-1.8,2.2-2.7c0.4-0.5,0.9-1,1.3-1.4
			c0,0,0,0,0,0C37.5,9.9,39.3,9.6,41,9.5z M30.2,16c-0.5,0.4-1.1,0.9-1.6,1.4c0-0.1,0.1-0.2,0.2-0.2c1.1-1.7,2.6-3.5,4.3-5
			C32,13.4,31.1,14.6,30.2,16z M28.8,19.7c1.5-1.5,3.1-2.8,4.9-3.9c0.3-0.2,0.6-0.3,0.9-0.5c-2,1.8-3.6,4-5,6.3c0.6,0,1.1,0,1.7,0
			c0.2-0.3,0.5-0.6,0.7-0.8c-0.2,0.3-0.4,0.6-0.6,0.8c0.8,0,1.5,0,2.3,0c0.7-0.8,1.4-1.5,2.2-2.1c0.1-0.1,0.3-0.2,0.4-0.3
			c-0.6,0.6-1.2,1.3-1.8,1.9c-0.2,0.2-0.3,0.4-0.5,0.6c1.3,0,2.6,0,3.9,0c0.2-0.1,0.4-0.2,0.6-0.3c-0.1,0.1-0.2,0.2-0.3,0.3
			c1,0,2.1,0,3.1,0c0.3,0,0.6,0,0.9,0.1c0.2-0.1,0.5-0.2,0.8-0.3c-0.1,0.1-0.3,0.2-0.4,0.3c0.3,0,0.7,0.1,1,0.2
			c0.5-0.4,1-0.7,1.5-1.1c0.1,0,0.2,0,0.3,0c0.2,0,0.3,0.1,0.5,0.1c-0.7,0.3-1.4,0.6-2,1.1c0.3,0.1,0.6,0.2,0.9,0.3c0,0,0,0,0,0
			c0.8-0.5,1.6-0.8,2.5-1c0.1,0,0.1,0.1,0.2,0.1c-0.8,0.3-1.6,0.6-2.4,1c0.4,0.2,0.8,0.4,1.2,0.6c0.4,0.3,0.8,0.6,1.2,1
			c0.2-0.1,0.4-0.2,0.7-0.3c0.5,0.1,0.9,0.2,1.4,0.4c-0.6,0.1-1.1,0.3-1.6,0.5c0.3,0.4,0.5,0.7,0.7,1.1c0,0,0,0,0.1,0
			c0.5,0.1,1.1,0.3,1.6,0.5c0,0-0.1,0.1-0.2,0.1c-0.3,0-0.7,0.1-1,0.2c-0.1,0-0.1,0-0.2,0c0,0,0,0,0,0c0.2,0.5,0.3,1,0.4,1.5
			c0,0,0.1-0.1,0.1-0.1c0.1,0,0.2,0,0.4,0c0.6,0.1,1,0.4,1.4,0.8c-0.6,0.1-1.2,0.3-1.8,0.6c0,0.8-0.1,1.5-0.2,2.1
			c0.2,0.1,0.5,0.2,0.7,0.4c0.2,0.2,0.3,0.4,0.5,0.6c-0.5,0.2-1,0.1-1.5-0.1c0,0,0,0.1,0,0.1c-0.1,0.2-0.2,0.4-0.4,0.6
			c0.6,0.3,1.2,0.3,1.8,0.2c-0.3,0.2-0.6,0.4-0.9,0.6c-0.5,0-0.9-0.1-1.3-0.2c-0.2,0.2-0.4,0.4-0.7,0.6c0.3,0.1,0.5,0.2,0.8,0.3
			c-0.2,0.1-0.3,0.1-0.4,0.2c-0.2-0.1-0.3-0.3-0.4-0.5c-0.3,0.2-0.6,0.4-1,0.5c-0.1,0-0.2,0.1-0.3,0.1c0,0.1,0,0.3-0.1,0.4
			c0.5,0.1,1,0.2,1.4,0.4c0.1,0,0.2-0.1,0.3-0.1c0.3,0.2,0.6,0.4,0.9,0.5c0.2,0.1,0.4,0.2,0.6,0.2c-0.2,0-0.5,0.1-0.7,0.1
			c0.3,0.2,0.5,0.5,0.7,0.7c0.2,0,0.3,0,0.5-0.1c-0.1,0.1-0.2,0.2-0.3,0.3c0.3,0.4,0.5,0.8,0.6,1.3c0.4-0.6,0.8-1.2,1.1-1.8
			c-0.2,0.9-0.5,1.7-1,2.2c0.1,0.4,0.2,0.9,0.3,1.3c0.3,0,0.6,0,1-0.1c-0.2,0.2-0.3,0.4-0.5,0.6c-0.1,0.1-0.2,0.1-0.3,0.2
			c0.1,0.6,0.1,1.2,0.1,1.8c0.5,0.1,0.9,0.2,1.4,0.2c0-0.3-0.1-0.6-0.1-0.8c-0.3,0-0.7,0-1-0.1c0.1-0.1,0.1-0.1,0.2-0.2
			c0.3,0,0.5,0,0.8,0c-0.1-0.9-0.1-1.7,0-2.5c-0.4,0.1-0.8,0.2-1.2,0.2c0.1-0.1,0.2-0.2,0.3-0.4c0.6-0.8,1-1.8,1.1-2.9
			c0.2-0.1,0.4-0.2,0.5-0.3c0.1,0,0.1-0.1,0.2-0.1c0.3-0.6,0.5-1.2,0.9-1.8c0.1-0.2,0.3-0.4,0.4-0.6c-0.2-0.3-0.4-0.5-0.6-0.8
			c0.2-0.3,0.4-0.6,0.6-1c0.1,0,0.3,0.1,0.4,0.1c0.2,0.1,0.5,0.2,0.7,0.3c0,0,0,0,0,0c1.3-1.3,2.8-2.1,4.5-2.5
			c-0.4-0.2-0.9-0.3-1.3-0.5c-0.1-0.2-0.3-0.4-0.5-0.6c0-0.3,0-0.6,0-0.8c0.8,0.3,1.5,0.6,2.2,1.1c0.1,0.2,0.2,0.5,0.3,0.7
			c0.5-0.1,1.1-0.1,1.7-0.2c0,0-0.1-0.1-0.1-0.1c-0.4-0.4-0.8-0.7-1.3-1c-0.2-0.4-0.5-0.8-0.7-1.2h-0.9c0.1,0.1,0.2,0.3,0.3,0.4
			c-0.3-0.2-0.7-0.3-1.1-0.4h-1.6v-0.5c-0.2,0-0.4-0.1-0.5-0.1c-0.2-0.8-0.5-1.6-1-2.2c-0.1-0.2-0.3-0.3-0.4-0.5c0.1,0,0.2,0,0.2,0
			c0.7,0.7,1.3,1.4,1.7,2.3v-1.6c-0.1-0.1-0.2-0.3-0.3-0.4c0,0,0.1,0,0.1,0c0.1,0.1,0.1,0.1,0.2,0.2v-0.7h0.8
			c-0.2-0.1-0.4-0.1-0.7-0.2c-0.3-0.2-0.5-0.4-0.8-0.6c0.9,0.2,1.8,0.4,2.7,0.8h2.1c-0.6-0.7-1.3-1.4-2.1-2c0,0,0,0,0.1,0
			c0.9,0.6,1.7,1.3,2.5,2h1.7c-0.5-0.5-1-1-1.6-1.4c0.9,0.3,1.6,0.8,2.3,1.4h3.1c0,0,0,0-0.1,0c-0.5-0.7-1.1-1.4-1.7-2.1
			c0.7,0.5,1.4,1,2.1,1.6c0.1,0.2,0.2,0.4,0.4,0.6h1v1.9c0,0,0.1,0,0.1,0c0.1,0.3,0.2,0.5,0.4,0.8c-0.1-0.2-0.3-0.3-0.4-0.5v1.3h-1
			c0.8,1.3,1.5,2.8,1.9,4.3c1.9,1.5,2.9,3.6,3.3,6.1c0.2,1.1,0.2,2.3,0.3,3.5c0.6-0.8,1.1-1.6,1.6-2.4c0,0.4,0,0.7,0,1.1
			c-0.5,1.7-1.1,3.4-1.9,5c-0.1,2.3-1.1,4.1-3,5.4c-0.1,0.1-0.2,0.1-0.2,0.1c-1.8,2.4-4,4.3-6.7,5.7c0.2-0.2,0.4-0.5,0.7-0.7
			c1.6-1.1,3.1-2.5,4.3-4.1c-0.4,0.2-0.9,0.3-1.3,0.4c-0.2,0.2-0.4,0.4-0.6,0.6c0.1-0.2,0.2-0.4,0.4-0.6c-0.6,0.1-1.1,0.2-1.7,0.3
			c-1.1,0.1-2.2,0.1-3.3,0c-0.1,0-0.1,0.1-0.2,0.1c0.1,0,0.1-0.1,0.2-0.1c-0.5,0-1-0.1-1.5-0.2c-0.1,0.1-0.1,0.3-0.2,0.4
			c-0.9,0.6-1.8,1.1-2.8,1.6c0.3-0.3,0.5-0.7,0.8-1c0.7-0.3,1.4-0.6,2.1-1c-0.5-0.1-1-0.2-1.4-0.4c-0.2-0.1-0.3-0.1-0.5-0.2
			c0,0,0,0.1-0.1,0.1c-0.9,0.6-1.9,1.2-2.9,1.7c-3.4,1-7.1,1.1-10.4,0.1c-0.2,0-0.3-0.1-0.5-0.2c4.4,0.7,9,0.1,12.6-2.3
			c-0.9-0.5-1.7-1.1-2.3-1.9c-0.4,0.3-0.9,0.6-1.3,0.8c-0.4,0.1-0.9,0.2-1.3,0.2c-0.5,0-0.9,0-1.4,0c0.3-0.3,0.5-0.5,0.8-0.8
			c0.9-0.3,1.8-0.6,2.7-1c-0.2-0.2-0.3-0.5-0.4-0.7c-0.4,0.2-0.7,0.3-1.1,0.5c0.3-0.3,0.5-0.7,0.8-1.1c-0.2-0.3-0.3-0.7-0.4-1.1
			c-0.2-0.6-0.3-1.1-0.5-1.7c-0.5,0.1-1,0.3-1.6,0.3c0,0.3-0.1,0.6-0.2,1c-0.1,0.3-0.2,0.6-0.3,0.8c0.8,0.1,1.5,0.2,2.3,0.1
			c-0.5,0.7-1.1,1.4-1.8,2.1c-0.7,0.2-1.4,0.4-2.1,0.5c-0.4,0.5-1,0.9-1.5,1.3c0.2,0,0.3,0.1,0.5,0.1c-0.2,0-0.4,0-0.6,0
			c-0.4,0.2-0.8,0.4-1.2,0.6c0.4,0.1,0.9,0.2,1.3,0.2c-0.6,0.2-1.3,0.3-2,0.1c-0.1,0-0.1,0-0.2,0c-0.4,0.1-0.9,0.2-1.4,0.3
			c-0.3,0-0.6,0.1-0.8,0.1c0.5,0.2,1.1,0.4,1.6,0.5c2.9,0.7,5.9,0,8.6-1.4c1,0,2-0.2,2.9-0.3c-3.4,2-7.7,2.6-11.7,1.9
			c-0.9-0.2-1.8-0.4-2.7-0.7c0,0,0,0,0,0c-0.1,0-0.1,0-0.2,0c-0.7,0-1.5,0-2.2,0c0.3,0.1,0.5,0.2,0.8,0.3c0.3,0.1,0.7,0.2,1.1,0.4
			c0.1,0.1,0.2,0.2,0.4,0.2c3.2,2,7,2.5,10.8,2c-1.1,0.5-2.3,0.8-3.4,1.2c-1.4,0.1-2.9,0.1-4.3,0c-2.6-0.9-5-2.2-7.1-4
			c0,0,0,0-0.1-0.1c-0.4,0-0.8,0-1.2,0c0.1,0.1,0.2,0.2,0.4,0.4c0.9,0.9,1.9,1.7,2.9,2.4c0.3,0.2,0.6,0.4,1,0.6
			c-1.5-0.4-2.9-1-4.2-1.7c-0.6-0.5-1.1-1-1.6-1.6c-2.1,0-4.3,0-6.4,0c0,0.2,0.1,0.3,0.1,0.5c-0.1-0.1-0.2-0.2-0.3-0.2
			c-0.1-0.1-0.1-0.1-0.2-0.2c0,0,0,0,0,0c-0.2,0-0.4,0-0.6,0h-0.5c0,0,0.1,0.1,0.1,0.1c0.1,0.5,0.2,1,0.4,1.5
			c-0.3-0.3-0.7-0.6-1-0.9c0-0.2,0.1-0.5,0.1-0.8V37c0,0.4-0.1,0.8-0.1,1.2c-0.4-1.7-0.5-3.4-0.3-5.1c0.1-0.5,0.2-0.9,0.4-1.4v-3.1
			c-0.4,1-0.7,2-1,3.1c-0.3,0.8-0.6,1.6-0.9,2.5c-0.1-0.8-0.1-1.6-0.1-2.4c0-0.2,0-0.4,0.1-0.7c0.5-1.7,1.1-3.3,1.8-4.9v-4.5
			c0.2,0,0.4-0.1,0.6-0.1c0.5,0,1,0,1.5,0C28.1,21,28.4,20.4,28.8,19.7z M46.6,34.9c0,0-0.1,0-0.1,0c0-0.1,0-0.1,0-0.2
			C46.5,34.8,46.6,34.8,46.6,34.9z M55,27.1C55.1,27.1,55.1,27.1,55,27.1C55.1,27.1,55.1,27.1,55,27.1C55.1,27.1,55.1,27.1,55,27.1z
			 M56.7,28.6C56.7,28.6,56.7,28.7,56.7,28.6c-0.1,0-0.3,0-0.4,0c-0.1-0.1-0.2-0.1-0.3-0.2v-0.5C56.2,28.1,56.5,28.4,56.7,28.6z
			 M56.4,27.2c0.1,0,0.2,0,0.3,0.1c0,0.1,0,0.2,0,0.2C56.6,27.4,56.5,27.3,56.4,27.2z M56.4,29.8c0,0.2-0.1,0.3-0.2,0.4l-0.2-0.2
			c0-0.2,0-0.4,0-0.6C56.2,29.6,56.3,29.7,56.4,29.8z M48.3,50.3c0.4,0,0.9,0,1.3-0.1c-0.6,0.2-1.3,0.3-1.9,0.5
			C47.9,50.6,48.1,50.4,48.3,50.3z M47.9,48.9c0.4,0,0.8-0.1,1.1-0.2c0,0-0.1,0.1-0.1,0.1c-0.1,0.1-0.1,0.1-0.2,0.2
			C48.4,49,48.2,49,47.9,48.9z M43.8,57.4c-0.5-0.1-1.1-0.2-1.6-0.2c-0.8-0.3-1.6-0.6-2.4-0.9c0.2,0,0.4,0.1,0.5,0.1
			C41.5,56.7,42.6,57.1,43.8,57.4z M29.4,54.8c-0.1-0.5-0.3-0.9-0.4-1.4c0.2,0.2,0.5,0.3,0.8,0.5c0.5,0.8,1.1,1.6,1.8,2.2
			C30.9,55.7,30.1,55.3,29.4,54.8z M33.2,57.8c-1.1-0.5-2.2-1-3.3-1.6c0,0,0-0.1-0.1-0.2C30.9,56.7,32,57.3,33.2,57.8z M29.4,51.3
			c0-0.1-0.1-0.2-0.1-0.3c2.7,2.1,5.8,3.9,8.9,5.3c-2.7-0.6-5.4-1.6-7.7-3C30,52.8,29.7,52.1,29.4,51.3z M29,52.4
			c-0.1-0.1-0.2-0.1-0.3-0.2c-0.1-0.4-0.2-0.8-0.3-1.2C28.6,51.5,28.8,52,29,52.4z M28.2,53.3c-0.1-0.3-0.2-0.5-0.3-0.8
			c0,0,0.1,0.1,0.2,0.1C28,52.9,28.1,53.1,28.2,53.3z M27.2,54.4c-0.6-0.5-1.2-1-1.8-1.6c0-0.1,0-0.2,0-0.3c0.4,0.4,0.9,0.9,1.4,1.2
			c0.1,0.1,0.2,0.1,0.3,0.2c0,0,0,0.1,0,0.1C27.2,54.2,27.2,54.3,27.2,54.4z M22.6,42.9c0.1-0.6,0.1-1.2,0.2-1.8c0.4,1,1,2.1,1.6,3
			c0.1,0.5,0.2,1.1,0.3,1.6C24,44.9,23.3,43.9,22.6,42.9z M24.4,46.5c-0.3-0.2-0.5-0.5-0.8-0.7c-0.1-0.2-0.1-0.3-0.2-0.5
			C23.7,45.7,24,46.1,24.4,46.5z M21.8,47.6c0,0.2,0,0.4,0.1,0.7c-0.1-0.1-0.1-0.2-0.1-0.2c-0.2-0.4-0.4-0.7-0.6-1.1
			c0-0.2,0-0.4,0-0.6C21.4,46.8,21.6,47.2,21.8,47.6z M21.3,44.5c0-0.2,0-0.4,0-0.6c0.1,0.2,0.2,0.5,0.4,0.7c0,0.4,0,0.7,0,1.1
			C21.5,45.3,21.4,44.9,21.3,44.5z M21.8,39.7c0-0.3,0.1-0.7,0.2-1c0.1,0.3,0.2,0.7,0.3,1c-0.1,0.4-0.2,0.9-0.2,1.3
			C22,40.6,21.9,40.1,21.8,39.7z M22.1,34.3c0-0.9,0-1.7,0.1-2.6c0.2-0.7,0.3-1.4,0.6-2.1c-0.1,0.9-0.1,1.7-0.1,2.6
			C22.5,32.9,22.3,33.6,22.1,34.3z M22.9,34.7c0.1,0.6,0.2,1.2,0.3,1.8C23,37,22.8,37.5,22.7,38c-0.1-0.5-0.2-0.9-0.3-1.4
			C22.5,36,22.7,35.3,22.9,34.7z M23.2,39.6c0.1-0.5,0.2-1,0.3-1.5c0.1,0.3,0.1,0.6,0.2,0.9c0.1,0.2,0.1,0.5,0.2,0.7
			c0,0.7,0.1,1.5,0.2,2.2c-0.1-0.2-0.2-0.5-0.4-0.8C23.5,40.6,23.3,40.1,23.2,39.6z M24.7,39.5c0-0.2,0-0.5,0-0.7
			c0.3,0.6,0.6,1.2,0.8,1.9c0,0.2,0,0.5,0,0.7C25.2,40.8,25,40.1,24.7,39.5z M23.8,27.7c0.1-0.4,0.1-0.8,0.2-1.2
			c0.2-0.4,0.4-0.8,0.6-1.2C24.3,26.1,24,26.9,23.8,27.7z M25.7,19.5c-0.5,1-1,2.1-1.4,3.2c-0.2,0.3-0.4,0.7-0.6,1
			c-0.8,1.1-1.5,2.3-2.1,3.5c0.1-0.7,0.2-1.3,0.3-2c0.4-0.8,0.9-1.6,1.3-2.4c0.9-1.6,1.9-3.1,3-4.6C26.1,18.7,25.9,19.1,25.7,19.5z
			 M22,28.3c-0.1,0.2-0.1,0.5-0.2,0.7c-0.3,0.7-0.5,1.4-0.8,2.1c0-0.3,0.1-0.6,0.1-0.9C21.4,29.5,21.7,28.9,22,28.3z M22,51.2
			c0.4,0.7,0.7,1.5,1.1,2.2c-0.3-0.2-0.6-0.4-0.8-0.6c-0.4-0.6-0.8-1.2-1.1-1.8c0-0.6,0-1.1,0-1.7C21.4,49.9,21.7,50.5,22,51.2z
			 M22.6,47.6c0-0.6-0.1-1.2-0.1-1.9c0.1,0.1,0.2,0.3,0.3,0.4c0.6,1.3,1.3,2.5,2.2,3.7c0,0.1-0.1,0.3-0.1,0.4c0,0.2-0.1,0.5-0.1,0.7
			C24,49.8,23.2,48.7,22.6,47.6z M24.6,47.7c0.2,0.1,0.3,0.2,0.5,0.3c0.1,0.1,0.2,0.1,0.3,0.2c0,0.1,0,0.3-0.1,0.4
			C25,48.3,24.8,48,24.6,47.7z M25.2,43.7c-0.1-0.5-0.2-1-0.2-1.5c0.2,0.4,0.3,0.7,0.5,1.1c0,0.3,0,0.6,0,0.9
			C25.4,44,25.3,43.8,25.2,43.7z M25.4,53.9c0.8,0.7,1.7,1.4,2.6,2c0,0,0,0,0,0.1c-0.9-0.4-1.8-0.8-2.7-1.3
			C25.4,54.4,25.4,54.2,25.4,53.9z M27.3,56.5c0.5,0.2,1,0.4,1.5,0.7c0.4,0.5,0.7,1,1.1,1.4c0,0,0,0.1,0.1,0.1
			c0.1,0.2,0.2,0.3,0.3,0.5c0.1,0.3,0.2,0.5,0.4,0.8c-2.1-1-3.9-2.5-5.3-4.4C26.1,56,26.7,56.3,27.3,56.5z M29,61.1
			c-0.3,0-0.5,0-0.8-0.1c-0.6-0.2-1.1-0.7-1.5-1.3c0-0.1-0.1-0.2-0.1-0.3C27.4,60,28.2,60.6,29,61.1z M29.3,61.9
			c0.2,0,0.5-0.1,0.7-0.2c0.4,0.3,0.9,0.5,1.3,0.7c0.2,0.1,0.4,0.2,0.6,0.3c0,0.2,0.1,0.4,0.1,0.6c0,0.6-0.2,1.3-0.7,1.6
			c-0.7,0.5-1.7,0.1-2.2-0.5c-0.8-0.8-1.2-2-1.6-3.1C28,61.8,28.6,62,29.3,61.9z M30.7,58.2c0-0.1-0.1-0.2-0.1-0.3
			c1.2,0.5,2.4,0.9,3.6,1.3c-0.6,0.2-1.2,0.3-1.8,0.5C31.8,59.3,31.3,58.7,30.7,58.2z M33.2,60.3c0.8-0.3,1.7-0.5,2.5-0.6
			c1.4,0.5,2.8,1,4.1,1.4c0,0.4,0,0.7,0,1.1c-1.7-0.1-3.5-0.4-5.2-0.8C34.1,61,33.6,60.7,33.2,60.3C33.2,60.3,33.2,60.3,33.2,60.3z
			 M37,63.4c0.9,0.4,1.8,0.7,2.7,0.9c0,0.1,0,0.2,0,0.3c-2.1-0.5-4.2-1.1-6.2-2c0,0,0,0,0-0.1C34.7,62.9,35.8,63.2,37,63.4z
			 M40,65.5c0,0.1,0.1,0.3,0.1,0.4c-1.2-0.1-2.3-0.3-3.5-0.7c-0.7-0.3-1.3-0.7-1.9-1.2C36.5,64.6,38.2,65.1,40,65.5z M34.5,57.2
			c-1.2-0.6-2.2-1.3-3-2.2c3,1.5,6.3,2.3,9.5,2.9c0.3,0.1,0.7,0.1,1,0.2c0.8,0.3,1.5,0.5,2.3,0.7c-1,0.1-2,0.2-2.9,0.1
			C39.1,58.7,36.7,58.2,34.5,57.2z M43.7,65.1c0.7,0.1,1.4,0.1,2,0.1c-0.4,0.1-0.7,0.2-1.1,0.3c-1.4-0.2-2.7-0.4-4.1-0.7
			c0-0.1,0-0.1,0-0.1s0-0.1,0-0.1C41.6,64.8,42.7,65,43.7,65.1z M42,65.9c-0.3,0-0.7,0-1,0c0-0.1-0.1-0.2-0.1-0.2
			C41.2,65.7,41.6,65.8,42,65.9z M43.1,66.5c0.5-0.1,1-0.1,1.5-0.2c0.1,0,0.2,0,0.3,0c-1,0.2-2,0.5-3.1,0.7
			c-0.1-0.1-0.2-0.2-0.3-0.4C42,66.6,42.5,66.6,43.1,66.5z M43.3,67.5c1.2-0.3,2.4-0.5,3.6-0.9c1.1,0.1,2.3,0.2,3.4,0.3
			c-0.5,0.5-1,0.9-1.6,1.2c-2.1,1.2-4.5,1.2-6.3-0.4C42.7,67.6,43,67.6,43.3,67.5z M49,66c1.1-0.3,2.1-0.7,3.2-1
			c-0.3,0.4-0.7,0.8-1,1.2C50.4,66.1,49.7,66.1,49,66z M51.1,64.2c0.4-0.2,0.9-0.4,1.3-0.7c0.3,0,0.7,0,1,0
			c-0.1,0.1-0.1,0.1-0.2,0.2C52.5,63.9,51.8,64,51.1,64.2z M53.6,64.5c1.2-0.3,2.5-0.7,3.7-1.1c1.7-0.2,3.4-0.5,5-1
			c-1.4,1.2-2.9,2.4-4.5,3.4c-1.9,0.3-3.8,0.4-5.7,0.3C52.7,65.6,53.1,65.1,53.6,64.5z M63.2,62.7c0.3-0.3,0.7-0.6,1-0.9
			c1.5-0.5,2.9-1.2,4.2-2c0.9-0.1,1.8-0.3,2.7-0.5c-1.5,1.5-3.3,2.8-5.2,3.9c-1.9,1.1-4,1.8-6.1,2.3C61,64.6,62.1,63.7,63.2,62.7z
			 M76.3,48.9c-1.9,3.1-4.5,5.8-7.6,7.8c0.5-0.6,0.9-1.2,1.4-1.9c0.1-0.1,0.2-0.3,0.4-0.4c1-1,2-2.1,2.9-3.3c1.7-2.3,3-4.9,3.8-7.7
			c0.3-0.8,0.5-1.6,0.8-2.4C77.9,43.8,77.3,46.4,76.3,48.9z M77.7,48.3c0,0,0-0.1,0-0.2c0.3-0.6,0.6-1.3,0.9-2
			c-0.3,1.1-0.6,2.2-1.1,3.2C77.6,49,77.6,48.7,77.7,48.3z M70.5,9.9c1.6,1.1,3.1,2.3,4.4,3.5c0,0,0.1,0.1,0.1,0.1
			c1.6,1.8,2.7,3.8,3.5,6.1c-1.8-1.3-3.7-2.6-5.7-3.7c-2.2-2.8-4.8-5.2-7.7-7.2c-0.8-0.6-1.6-1.2-2.4-1.7
			C65.5,7.6,68.1,8.5,70.5,9.9z M65.2,6.8c-1.4-0.4-2.8-0.8-4.2-1c-1.2-0.8-2.5-1.4-3.8-2C60,4.6,62.7,5.6,65.2,6.8z M39.9,3
			c3.7-1.2,7.6-1.1,11.3-0.5c0.2,0,0.4,0.1,0.7,0.1c0.4,0.1,0.8,0.2,1.2,0.4c1.9,0.7,3.7,1.5,5.5,2.4c-3.1-1.1-6.3-1.7-9.7-1.8
			c-2.2,0-4.4,0.3-6.4,1.1c-2.4-0.2-4.9,0-7.3,0.6C36.7,4.3,38.2,3.5,39.9,3z M33.3,6.8c1.7-0.6,3.5-1,5.2-1.2
			c0.8-0.1,1.5-0.1,2.3-0.1l-0.6,0.3c-2.3,0.7-4.4,1.7-6.5,2.9c-0.6,0.3-1.1,0.7-1.6,1c-1.2,0.5-2.4,1.1-3.5,1.8
			c0.9-1.1,1.9-2.2,2.9-3.3C32.1,7.8,32.7,7.2,33.3,6.8z M30.5,8c0.1-0.1,0.2-0.1,0.3-0.2c-0.6,0.6-1.2,1.3-1.8,2
			c-0.8,0.9-1.6,1.9-2.3,3c-0.4,0.3-0.8,0.6-1.2,0.9C27,11.6,28.7,9.7,30.5,8z M23.9,17.6C23.9,17.6,23.9,17.6,23.9,17.6
			c0,0,0,0.1-0.1,0.2C23.9,17.7,23.9,17.7,23.9,17.6z M24.2,18.8c1.7-2.4,3.7-4.7,6-6.6c0.1,0,0.2-0.1,0.2-0.1
			c0.3-0.1,0.6-0.3,0.9-0.4c-0.1,0.1-0.2,0.2-0.4,0.4c-2.1,1.8-3.9,3.8-5.6,6.1c-0.9,1.2-1.7,2.5-2.5,3.8
			C23.3,20.9,23.7,19.8,24.2,18.8z M21.6,21.1c0.1-0.4,0.3-0.8,0.5-1.1c0.2-0.3,0.4-0.6,0.7-0.9c-0.1,0.4-0.2,0.7-0.3,1.1
			c-0.5,0.8-0.9,1.6-1.4,2.4C21.2,22.1,21.4,21.6,21.6,21.1z M21.6,23.1c-0.3,0.8-0.6,1.7-0.8,2.5c-0.4,0.8-0.8,1.7-1.2,2.6
			c0-0.2,0.1-0.3,0.1-0.5c0.1-0.4,0.3-0.8,0.4-1.2C20.6,25.4,21.1,24.2,21.6,23.1z M19.7,40.5c0.1,1.4,0.4,2.7,0.8,4
			c0,0.3,0,0.6-0.1,0.9c-0.4-1.2-0.7-2.4-0.9-3.7C19.6,41.3,19.7,40.9,19.7,40.5z M19.7,35.5c0-0.3,0.1-0.7,0.2-1
			c0,0.4-0.1,0.9-0.1,1.3C19.7,35.7,19.7,35.6,19.7,35.5z M19.4,31.8v-0.4c0.1-0.2,0.1-0.4,0.2-0.6C19.5,31.1,19.4,31.4,19.4,31.8z
			 M19.7,45.7c0.2,0.6,0.4,1.2,0.6,1.7c0,0.6,0,1.2,0,1.8c-0.4-1-0.8-2-1.1-3c0-0.5,0-1,0.1-1.5C19.4,45,19.6,45.4,19.7,45.7z
			 M19.8,50.7c-0.1-0.1-0.2-0.2-0.4-0.4c0-0.2,0-0.3,0-0.5C19.5,50.1,19.6,50.4,19.8,50.7z M20.4,52.4c0.1,1.1,0.1,2.1,0.3,3.2
			c0,0.2,0,0.4,0.1,0.6c-0.6-1.5-1-3-1.2-4.6C19.8,51.9,20.1,52.1,20.4,52.4z M17.7,48.4c-1.4-1.9-2.5-4.1-3.1-6.6
			c-1.3-5.3-0.4-10.9,1.9-15.7c0.9-1.9,2-3.8,3.3-5.5c-1.6,2.5-2.9,5.2-3.4,8.2c-0.3,2-0.3,4,0,5.9c0,2.4,0.3,4.8,0.8,7.2
			c0,0,0,0.1,0,0.1c0.1,1.1,0.3,2.2,0.6,3.3C17.7,46.3,17.7,47.4,17.7,48.4z M20.1,21.5c-0.9,1.5-1.6,3-2.2,4.6
			C18.5,24.5,19.2,22.9,20.1,21.5z M17.3,35.6c-0.1-0.4-0.1-0.7-0.2-1.1c0-1.1,0.1-2.2,0.3-3.3c0.4-2.7,1.3-5.2,2.5-7.6
			c-0.4,1.4-0.8,2.7-1,4.1C18.1,30.2,17.5,32.9,17.3,35.6z M18.2,39.3c0-0.2-0.1-0.3-0.2-0.5c0-0.7,0-1.4,0-2.1
			c0.1-0.9,0.3-1.8,0.5-2.7c0,0.3,0,0.5,0.1,0.8c0,0.2,0.1,0.3,0.1,0.5c-0.1,0.8-0.2,1.7-0.3,2.5C18.4,38.3,18.3,38.8,18.2,39.3z
			 M18.6,50.9c0.2,1.6,0.6,3.3,1.1,4.9c0.4,1.1,0.9,2.1,1.4,3.1c0.2,0.9,0.3,1.8,0.6,2.8C19.8,58.3,18.9,54.6,18.6,50.9z M21.3,53.7
			c1,1.7,2.3,3.1,3.8,4.3c0.2,0.7,0.5,1.4,1,2c0.4,1,0.8,2.1,1.2,3.1c0.4,0.9,0.8,1.8,1.6,2.4c1.7,1.2,3.6,0.1,3.8-1.9
			c0-0.2,0-0.4,0-0.5c0.1,0.1,0.3,0.1,0.4,0.2c0.5,0.7,1.1,1.4,1.9,1.9c1.5,1,3.5,1.4,5.5,1.4c0.1,0.2,0.2,0.4,0.3,0.5
			c-2.7,0.5-5.4,0.8-8.1,1c-0.3,0-0.6,0-0.9,0.1c-4.1-2.2-7.6-5.5-9.9-9.6C21.7,57,21.4,55.3,21.3,53.7z M25.2,67
			c0,0-0.1-0.1-0.1-0.1c0.2,0.2,0.5,0.4,0.7,0.6C25.5,67.3,25.3,67.2,25.2,67z M28.4,68.3c-2-1.2-3.8-2.8-5.3-4.6
			c-0.3-0.9-0.5-1.8-0.7-2.7c0-0.1,0-0.1,0-0.2c2.1,3,4.9,5.6,8.1,7.5C29.8,68.4,29.1,68.4,28.4,68.3z M37.3,71.4
			c-2.5-0.3-5.1-1-7.4-2.2c0.6,0,1.2,0,1.7-0.1c0.1,0,0.2,0.1,0.3,0.2C33.7,70.2,35.5,70.9,37.3,71.4C37.4,71.4,37.3,71.4,37.3,71.4
			z M42.1,71.5c-2.5-0.3-4.9-0.9-7.3-1.8c-0.5-0.2-1-0.4-1.6-0.7c0.3,0,0.7,0,1-0.1c2.4-0.2,4.8-0.6,7.2-1c1,1,2.2,1.7,3.6,1.9
			c2.4,0.3,4.6-1,6.3-2.6c0,0,0.1-0.1,0.1-0.1c1.6,0.1,3.2,0,4.8-0.1C51.9,69.4,47,71.1,42.1,71.5z M82.9,44.8
			c-2,6.3-5.9,11.8-10.9,16.1C65.1,67,55.7,71.4,46.3,71.6c4.2-0.9,8.2-2.7,11.8-5c2.3-0.4,4.5-1,6.6-2c3.1-1.4,5.8-3.5,8-6
			c2.4-1.1,4.3-3.1,4.6-5.9c0-0.4,0.1-0.8,0.1-1.2c0.1-0.1,0.1-0.2,0.2-0.3c1.5-3.2,2.3-6.5,2.6-9.9c0.8-1.8,1.5-3.7,2-5.6
			c0.7-2.9,0.9-5.9,0.6-8.8c-0.1-0.9-0.2-1.8-0.4-2.7c0.1,0.2,0.2,0.4,0.2,0.6C85.1,31.2,85.1,38.3,82.9,44.8z"/>
		<path fill="#414042" d="M63,29.1c0-0.2,0-0.5-0.1-0.7c0.1,0.2,0.2,0.5,0.3,0.7c0.2,0,0.4,0,0.5,0c0.9,0.1,1.9,0.3,2.8,0.6
			c-0.2-0.4-0.4-0.9-0.6-1.3v-0.1c0.3,0.5,0.6,0.9,0.9,1.4c0.2,0.1,0.3,0.1,0.5,0.2c0.3,0.1,0.5,0.2,0.8,0.4
			C67.5,29.2,66.8,28,66,27c0,0,0-0.1,0-0.1h-1.9c0.1,0.2,0.2,0.3,0.3,0.5c0.2,0.6,0.4,1.2,0.6,1.8c-0.2-0.3-0.5-0.6-0.7-1
			c-0.3-0.4-0.7-0.9-1.1-1.3h-1.7c0.2,0.7,0.3,1.5,0.3,2.2C62.3,29.1,62.6,29.1,63,29.1z"/>
		<path fill="#414042" d="M42.9,38.9c0.1,0,0.1,0,0.2,0.1c-0.4-0.6-1.1-0.9-1.9-1c0.3,0.2,0.6,0.5,1,0.6c-0.1,0.9,0,1.9,0.5,2.8
			c0.1,0.2,0.2,0.4,0.3,0.5c0,0-0.1,0-0.1,0c-1-0.6-1.8-1.4-2.6-2.2c-0.4-0.4-0.7-0.8-1-1.3c0-0.2,0.1-0.4,0.1-0.6
			c-0.8,0-1.6,0-2.4,0c0,0.7,0.1,1.3,0.2,2c-0.4-0.5-0.7-1.1-0.9-1.7c0-0.1-0.1-0.2-0.1-0.3c-1,0-1.9,0-2.9,0c0,0-0.1,0-0.1,0
			c0,0.1,0,0.1,0,0.2c0.3,2.5,1.1,5.2,2.3,7.6c0.3,0,0.6,0,0.9,0c-0.4-0.7-0.7-1.4-1-2.1c0.3,0.7,0.7,1.5,1.1,2.1c0.3,0,0.6,0,0.9,0
			c-1-1.5-1.8-3.2-2.2-4.9c0.2,0.2,0.3,0.3,0.5,0.4c0.6,1.2,1.3,2.2,2.2,3.2c0.1,0.2,0.3,0.4,0.4,0.6c0.1,0.2,0.1,0.5,0.2,0.7
			c0.6,0,1.3,0,1.9,0c-0.1-0.1-0.2-0.1-0.2-0.2c-0.5-0.7-1-1.4-1.3-2.2c0.5,0.2,0.9,0.4,1.4,0.6c0.9,0.5,1.8,0.9,2.7,1.2
			c0.3-0.3,0.6-0.7,0.7-1.2c0.2-0.7,0.3-1.4,0.3-2.1c-0.1,0-0.2,0.1-0.3,0.1C43.1,40.9,42.9,39.9,42.9,38.9z M34.1,39.5
			c0,0,0.1,0.1,0.1,0.1c0,0.2,0,0.5,0.1,0.8C34.2,40.1,34.2,39.8,34.1,39.5z M37.6,42.4c0,0,0.1,0.1,0.1,0.1c0,0.1,0.1,0.3,0.2,0.4
			C37.8,42.8,37.7,42.6,37.6,42.4z M38,40.5c0-0.2-0.1-0.5-0.1-0.7c0.1,0.1,0.1,0.2,0.2,0.3C38,40.2,38,40.3,38,40.5z M38.9,41.8
			c-0.1,0-0.1-0.1-0.2-0.1c0-0.2,0-0.4,0-0.6c0.3,0.3,0.6,0.6,0.9,0.9C39.4,42,39.1,41.9,38.9,41.8z M38.9,39.8
			C38.9,39.8,38.9,39.7,38.9,39.8c0-0.1,0-0.1,0-0.2c0.6,0.8,1.4,1.6,2.2,2.2C40.2,41.4,39.3,40.8,38.9,39.8z M40.6,43.1
			c-0.1-0.1-0.2-0.2-0.4-0.2c0.2,0,0.3,0,0.5,0c0.2,0.2,0.5,0.3,0.8,0.5C41.1,43.2,40.9,43.1,40.6,43.1z M42.7,43c0.1,0,0.2,0,0.4,0
			c0.2,0.1,0.3,0.2,0.5,0.2C43.2,43.2,43,43.1,42.7,43z"/>
		<path fill="#414042" d="M70.8,41.8C70.8,41.8,70.8,41.8,70.8,41.8C70.8,41.8,70.8,41.8,70.8,41.8l-2.8,0c-0.2,0.5-0.4,1-0.7,1.6
			c-0.1,0.2-0.1,0.3-0.2,0.5c0,0.1-0.1,0.2-0.1,0.2c0.1-0.6,0.1-1.2,0.1-1.8c0.1-0.2,0.1-0.3,0.1-0.5H66c0,0.1,0,0.1-0.1,0.2
			c-1.2,1.1-2.4,2.1-3.8,3c0.1-0.5,0.1-0.9,0.1-1.4c0-0.5,0-1,0-1.5c0.1-0.1,0.2-0.2,0.2-0.3h-3.5c-0.2,0.4-0.3,0.9-0.5,1.3
			c-0.3,0.1-0.5,0.3-0.8,0.4c0.1,0.5,0.3,1,0.7,1.4c0.5-0.3,0.9-0.5,1.3-0.8c-0.1,0.5-0.2,1-0.3,1.4c-0.1,0.1-0.2,0.2-0.2,0.3
			c0.4,0.3,0.8,0.6,1.3,0.7c0.1,0,0.2,0.1,0.3,0.1c0.1,0,0.2-0.1,0.3-0.1c0,0.1,0,0.1,0,0.2c0.3,0.1,0.5,0.1,0.8,0.2
			c0.1-0.3,0.1-0.6,0.2-0.9c0.9-0.6,1.8-1.2,2.6-1.9c-0.7,1-1.5,1.9-2.4,2.8c-0.1,0-0.1,0-0.2,0.1c0.9,0.1,1.8,0,2.6-0.2
			c0,0,0.1-0.1,0.1-0.1c0.2-0.1,0.4-0.2,0.6-0.3c-0.1,0.1-0.1,0.1-0.2,0.2c0.1,0,0.1,0,0.2-0.1c1.2-0.5,1.9-1.4,2.1-2.7h2.6
			c0.1-0.2,0.1-0.4,0.2-0.5c0,0,0.1-0.1,0.1-0.1c-0.1,0.2-0.1,0.4-0.2,0.6h0.8c0.2-0.5,0.3-1,0.5-1.6c0.1-0.1,0.2-0.2,0.3-0.4
			c0,0.6-0.1,1.3-0.2,1.9h0.8c0.1-0.7,0.2-1.4,0.2-2L70.8,41.8C70.8,41.8,70.8,41.8,70.8,41.8z M59.9,42.2c-0.1,0-0.1,0.1-0.2,0.1
			c0.1-0.2,0.1-0.3,0.2-0.5C59.9,42,59.9,42.1,59.9,42.2z M61.3,45.5c-0.4,0.2-0.8,0.4-1.1,0.6c0-0.1,0.1-0.3,0.1-0.4
			c0.5-0.9,0.9-1.8,1.3-2.7C61.5,43.8,61.4,44.6,61.3,45.5z M64.3,45.9c-0.1,0-0.1,0.1-0.2,0.1c0.2-0.3,0.5-0.5,0.7-0.8
			C64.6,45.4,64.5,45.7,64.3,45.9z M66.2,44.6c0,0.2-0.1,0.3-0.1,0.5c-0.1,0.1-0.2,0.1-0.3,0.2c0.2-0.3,0.3-0.6,0.5-0.9
			C66.2,44.4,66.2,44.5,66.2,44.6z"/>
		<path fill="#414042" d="M57.7,41.8c0,0.1,0,0.2,0,0.2c0.1-0.1,0.3-0.2,0.4-0.2H57.7z"/>
		<path fill="#414042" d="M67.1,37.9c0-0.1,0-0.2,0-0.2C67.1,37.7,67.1,37.8,67.1,37.9L67.1,37.9z"/>
		<path fill="#414042" d="M58.6,35.2C58.7,35.2,58.7,35.2,58.6,35.2c0.1,0.3,0.2,0.6,0.3,0.8c-0.4,0.5-0.8,1-1.3,1.4
			c0,0.1-0.1,0.2-0.1,0.4h0.8c0,0,0.1-0.1,0.1-0.1c0,0,0,0.1-0.1,0.1h0.8c0-0.1,0.1-0.2,0.1-0.3c0,0.1,0,0.2,0.1,0.3h1
			c0.1-0.2,0.3-0.4,0.4-0.7c0,0.2,0.1,0.3,0.1,0.5c-0.1,0.1-0.1,0.1-0.2,0.2h1.6c0-0.2,0-0.5,0-0.7c0.1-0.2,0.2-0.4,0.3-0.5
			c0.4-0.6,0.9-1.3,1.2-2c0.2,0.5,0.3,1.1,0.3,1.6c0,0.2,0,0.3,0,0.5c-0.2,0.4-0.3,0.7-0.5,1.1H65c0.1-0.3,0.1-0.5,0.1-0.8
			c0-0.1,0.1-0.2,0.1-0.3c0.1,0.4,0.2,0.7,0.3,1.1h0.8c-0.2-0.8-0.5-1.6-0.7-2.3c0.1-0.3,0.1-0.6,0.2-0.9c-0.2-0.2-0.4-0.4-0.7-0.6
			c0,0.1,0,0.1,0,0.2c0-0.1-0.1-0.2-0.1-0.3c-0.5-0.3-1-0.5-1.6-0.5c0,0,0,0,0.1,0.1c-0.2,0.8-0.5,1.5-0.8,2.2
			c0,0.1-0.1,0.1-0.1,0.2c0-0.6-0.1-1.1-0.2-1.7c0.1-0.2,0.1-0.5,0.2-0.7C60.9,33.4,59.5,34.1,58.6,35.2z M61.8,36.8
			c0,0-0.1,0.1-0.1,0.1c-0.1-0.2-0.1-0.5-0.2-0.7c0.1-0.2,0.2-0.4,0.3-0.6C61.8,36,61.8,36.4,61.8,36.8z M61.5,33.6
			c0,0.2,0.1,0.3,0.1,0.5c-0.1,0.4-0.3,0.7-0.4,1.1c-0.1-0.2-0.1-0.4-0.2-0.5C61.1,34.3,61.3,34,61.5,33.6z M60.6,36.2
			c-0.1,0.3-0.3,0.5-0.5,0.8c-0.1-0.3-0.2-0.6-0.2-0.9c0.1-0.2,0.3-0.4,0.4-0.6C60.5,35.7,60.6,36,60.6,36.2z M60,34.6
			c0,0.1-0.1,0.1-0.1,0.2c0-0.1,0-0.3,0-0.4C59.9,34.5,60,34.5,60,34.6z"/>
		<path fill="#414042" d="M32.3,45.6c0.1,0,0.2,0,0.3,0c-0.1-0.2-0.2-0.4-0.3-0.6V45.6z"/>
		<path fill="#414042" d="M45.2,35c0,0,0-0.1,0-0.1c-0.1,0-0.1,0-0.2,0.1C45.1,35,45.1,35,45.2,35z"/>
		<path fill="#414042" d="M32.3,33.3C32.3,33.3,32.4,33.3,32.3,33.3c0-0.1,0-0.1,0-0.2V33.3z"/>
		<path fill="#414042" d="M42.5,27.8c-0.1-0.2-0.3-0.4-0.5-0.6c-0.2,0.2-0.5,0.5-0.7,0.8c0-0.2,0.1-0.5,0.1-0.7
			c0.1-0.1,0.2-0.1,0.3-0.2c-0.4-0.2-0.8-0.3-1.3-0.3c-0.6,0-1.1,0-1.7,0c-0.1,0.2-0.2,0.5-0.3,0.7c-0.2,0.3-0.5,0.6-0.7,0.9
			c-0.6,0.2-1.1,0.4-1.6,0.7c0.2-0.6,0.4-1.1,0.6-1.7c0.1-0.2,0.2-0.4,0.3-0.6c-0.4,0-0.8,0-1.3,0c-0.6,1.1-1,2.2-1.4,3.3
			c0,0.1-0.1,0.3-0.1,0.4c-0.1,0.1-0.2,0.2-0.2,0.3c0.3-1.4,0.7-2.7,1.2-4c-0.3,0-0.6,0-0.9,0c-0.8,2-1.3,4.2-1.5,6.5c0,0,0,0,0,0.1
			c0.3,0,0.5,0,0.8,0c0-0.1,0.1-0.2,0.1-0.4c0,0.1,0,0.2,0,0.4c0.5,0,0.9,0,1.4,0c0-0.1,0-0.2,0-0.3c0.1-0.9,0.3-1.9,0.5-2.8
			c0.4-0.3,0.8-0.5,1.2-0.7c-0.7,1.2-1.3,2.5-1.6,3.8c0.3,0,0.6,0,0.8,0c0.1-0.4,0.2-0.7,0.4-1.1c-0.1,0.3-0.1,0.6-0.1,0.9
			c-0.1,0.1-0.1,0.2-0.2,0.2c0.5,0,1,0,1.5,0c0-0.2,0-0.3,0-0.5c0.3-0.3,0.6-0.6,1-0.9c-0.2,0.4-0.3,0.9-0.5,1.4c0.6,0,1.2,0,1.8,0
			c0-0.2-0.1-0.4-0.1-0.5c0.1,0.2,0.2,0.4,0.3,0.5c0.2,0,0.4,0,0.6,0c0.9,0,1.6-0.6,1.7-1.5c0-0.1,0-0.2,0.1-0.4
			c-0.5,0.3-0.9,0.6-1.3,1c-0.1-0.5-0.2-1.1-0.2-1.6c0-0.2,0-0.3,0-0.5c0.4-0.2,0.8-0.5,1.2-0.7c0.1-0.1,0.3-0.1,0.4-0.2
			c0-0.2,0-0.5-0.1-0.7C42.7,28.3,42.6,28,42.5,27.8C42.5,27.8,42.4,27.8,42.5,27.8C42.4,27.8,42.4,27.8,42.5,27.8z M39.2,29.9
			c0,0.3-0.1,0.6-0.1,0.8c-0.4,0.3-0.8,0.6-1.1,0.9c0.2-0.9,0.4-1.7,0.7-2.6c0.2,0,0.4-0.1,0.6-0.1C39.3,29.2,39.2,29.6,39.2,29.9z
			 M39.8,27.7c-0.1,0.1-0.1,0.3-0.2,0.4c-0.1,0-0.2,0-0.4,0c0.3-0.4,0.7-0.9,1.1-1.3c-0.1,0.1-0.2,0.3-0.2,0.5
			C39.9,27.4,39.9,27.6,39.8,27.7z M40.3,28.8L40.3,28.8c0,0.2,0,0.3,0,0.5c-0.1,0.1-0.1,0.2-0.2,0.3C40.1,29.3,40.2,29.1,40.3,28.8
			z M40.2,31c0,0,0-0.1,0.1-0.1c0,0,0,0,0,0c0,0.3,0.1,0.5,0.1,0.8C40.4,31.4,40.3,31.2,40.2,31z"/>
		<path fill="#414042" d="M32.3,26.9v2c0.3-0.6,0.6-1.1,1-1.6c0.1-0.2,0.2-0.3,0.3-0.5c-0.2,0-0.4,0-0.6,0
			C32.8,26.8,32.6,26.9,32.3,26.9z"/>
	</g>
</g>
<g id="Layer_3">
</g>
</svg>
