<?xml version="1.0" encoding="utf-8"?>
<!-- Generator: Adobe Illustrator 19.2.1, SVG Export Plug-In . SVG Version: 6.00 Build 0)  -->
<svg version="1.1" xmlns="http://www.w3.org/2000/svg" xmlns:xlink="http://www.w3.org/1999/xlink" x="0px" y="0px" width="95.8px"
	 height="74px" viewBox="0 0 95.8 74" enable-background="new 0 0 95.8 74" xml:space="preserve">
<g id="Layer_2">
	<g>
		<path fill="#414042" d="M35.6,16.5c-0.7,0.2-1.4,0.4-2,0.7c-1.4,1.5-2.6,3.2-3.7,5c-0.2,0.3-0.4,0.6-0.7,0.9
			c-0.3,1.1-0.4,2.2-0.4,3.3c0,0,0-0.1,0-0.1c0.9-1.8,2.1-3.5,3.5-5c-0.9,1.1-1.7,2.3-2.4,3.5c-0.4,0.7-0.8,1.3-1.1,2
			c0,0.7,0,1.3,0,2c0,0.1,0,0.1,0,0.2c0.9-2.2,2.1-4.3,3.7-6.1c-1.5,2.1-2.6,4.4-3.6,6.8c-0.1,0.2-0.1,0.3-0.2,0.5c0,3,0,6,0,9
			c0,0.1,0,0.3,0.1,0.4c0,0.2,0,0.3,0,0.5c0,0,0-0.1,0-0.1c0,0.8,0,1.6,0,2.3c0,1.2,0,2.4,0.1,3.6c0.1,0.1,0.1,0.3,0.2,0.4
			c0.1,0.5,0.2,1.1,0.4,1.6c-0.2-0.2-0.3-0.4-0.5-0.7c0,0.4,0.1,0.9,0.2,1.3c0.1,0.5,0.2,1,0.3,1.5c0.2,0.2,0.4,0.4,0.7,0.6
			c0.2,0.2,0.3,0.3,0.5,0.5c-0.3-0.2-0.7-0.4-1-0.6c0.2,0.6,0.5,1.2,0.8,1.7c1.8,1.4,3.8,2.6,5.8,3.6c1.8,0.4,3.6,0.4,5.4,0.4
			c4.5,0.1,9,0.1,13.5,0c1.1,0,2.2,0,3.3-0.1c0.5-0.2,0.9-0.3,1.4-0.5c-0.2,0.2-0.5,0.3-0.7,0.5c0.5,0,1-0.1,1.4-0.1
			c0.8-0.6,1.6-1.3,2.3-2c0.9-0.6,1.7-1.2,2.4-1.9c-0.4,0.5-0.7,1-1.1,1.5c-0.3,0.4-0.6,0.8-1,1.2c-0.5,0.4-1.1,0.7-1.7,1
			c1.1-0.2,2-0.5,2.8-0.9c1.2-0.9,2.4-2,3.3-3.2c0.3-0.6,0.6-1.3,0.8-2c0.1-0.3,0.2-0.7,0.2-1c-0.8,1.3-1.6,2.5-2.6,3.6
			c0.7-1,1.3-2.1,1.8-3.2c0.4-0.5,0.7-1,1-1.5c0.2-1.2,0.2-2.4,0.2-3.6c0-1.6,0-3.2,0-4.8c-0.3,0.5-0.7,0.9-1,1.3
			c0.2-0.8,0.2-1.6,0.2-2.5c0.2-1.9-0.1-3.9-0.6-5.7c-0.3-1.2-0.8-2.3-1.4-3.4V29c1.4,2,2.3,4.3,2.8,6.7c0-1,0-2,0-3
			c-0.1-0.3-0.2-0.6-0.4-1c-0.6-1.5-1.5-2.9-2.5-4.1c-0.1-0.5-0.2-1.1-0.3-1.6c-0.2-0.7-0.6-1.3-1-1.8c1.8,1.8,3.2,3.9,4.1,6.2
			c0-0.1,0-0.2,0-0.3c0-1.1-0.1-2.2-0.1-3.3c-0.3-0.4-0.6-0.7-0.9-1.1c0.2,0.1,0.4,0.3,0.7,0.4c0.1,0.2,0.2,0.4,0.3,0.6
			c-0.1-1-0.1-1.9-0.3-2.8c-0.5-2.9-1.9-5-4.2-6.3c0,0,0,0,0,0.1c-0.3-0.2-0.7-0.3-1-0.5c-0.4-0.2-0.8-0.3-1.3-0.4
			c-1.7-0.4-3.4-0.5-5.1-0.5c0.1,0,0.1,0.1,0.2,0.1c-0.1,0-0.2-0.1-0.3-0.1c-0.3,0-0.6,0-0.9,0c-0.7,0-1.4,0-2.1,0
			c0.1,0,0.2,0,0.3,0.1c0,0,0,0,0,0.1c-0.2,0-0.3-0.1-0.5-0.1c-3.6,0-7.2,0-10.7,0c-0.2,0.1-0.5,0.1-0.7,0.2c0-0.1,0-0.1,0-0.2
			c-1.9,0-3.8,0.1-5.7,0.4c-0.8,0.5-1.6,1-2.3,1.5C34.8,17.4,35.2,17,35.6,16.5z M36.2,20.1c0.1-0.1,0.3-0.2,0.4-0.3
			c-0.6,0.6-1.2,1.3-1.8,1.9c-0.5,0.6-1,1.2-1.5,1.9c-0.2,0.2-0.5,0.4-0.7,0.6C33.6,22.6,34.8,21.2,36.2,20.1z M33.6,24.4
			c0.2-0.2,0.4-0.4,0.7-0.6c0.3-0.3,0.7-0.5,1.1-0.7c-0.3,0.2-0.5,0.5-0.7,0.7c-1,1.1-1.8,2.3-2.3,3.7c-0.5,0.4-0.9,0.8-1.3,1.2
			C31.8,27.2,32.6,25.8,33.6,24.4z M52.1,22.3c-0.4,0.1-0.9,0.2-1.3,0.3c-0.3,0-0.5,0-0.8,0c0,0,0,0-0.1-0.1
			c-0.1-0.1-0.2-0.1-0.2-0.2c0.5-0.1,1.1-0.2,1.6-0.3C51.6,22.1,51.8,22.2,52.1,22.3z M51.6,21.1c0,0,0.1,0,0.1,0
			c0.2,0,0.4,0,0.6,0.1c-0.1,0-0.2,0-0.4,0C51.8,21.1,51.7,21.1,51.6,21.1z M49.3,19.1c-0.8,0-1.5,0-2.3,0.1
			c0.9-0.2,1.8-0.4,2.7-0.4c0.2,0,0.5,0,0.7,0.1c0.2,0,0.3,0.1,0.5,0.1C50.4,19,49.8,19,49.3,19.1z M48.8,22.7c-0.3,0-0.7,0.1-1,0.1
			c0,0,0.1,0,0.1,0c0.2-0.1,0.5-0.1,0.7-0.2C48.7,22.6,48.8,22.6,48.8,22.7z M47.5,21.9c0.1,0,0.1,0.1,0.2,0.1
			c-0.8,0.3-1.7,0.6-2.5,1c-0.1,0-0.2,0-0.4,0c0.1,0,0.1-0.1,0.2-0.1C45.8,22.4,46.7,22.1,47.5,21.9z M43.5,23c-0.1,0-0.2,0-0.3,0
			c0.7-0.6,1.4-1.1,2.1-1.6c0.1,0,0.2,0,0.3,0c0.2,0,0.3,0.1,0.5,0.1C45.2,21.9,44.3,22.4,43.5,23z M44,19.5c-0.1,0-0.2,0.1-0.3,0.2
			c-0.2-0.1-0.3-0.3-0.4-0.4c0.8-0.2,1.5-0.3,2.3-0.4C45,19,44.5,19.2,44,19.5z M44.2,18.2c-0.5,0.1-1,0.2-1.5,0.3
			c-0.1-0.1-0.1-0.3-0.2-0.4c0.9-0.1,1.8-0.1,2.7,0C44.9,18,44.6,18.1,44.2,18.2z M43.3,22c-0.5,0.4-0.9,0.8-1.3,1.2
			c-0.4,0.1-0.8,0.2-1.2,0.3c-0.2,0-0.3,0.1-0.5,0.2C41.1,23,42.1,22.4,43.3,22z M42.7,23.9c-0.2,0.2-0.4,0.5-0.5,0.7h-0.4
			c0.2-0.2,0.4-0.5,0.6-0.7C42.4,23.9,42.5,23.9,42.7,23.9z M38.2,44.9c0.1,0.2,0.3,0.4,0.4,0.6c0.3,1.3,0.8,2.5,1.6,3.6
			c-0.8-0.7-1.5-1.5-2.2-2.4c-1.1-1.5-2.1-3.5-2.6-5.5c0.2,0.2,0.3,0.3,0.5,0.4C36.6,42.9,37.3,44,38.2,44.9z M37.9,43
			c0,0,0.1,0.1,0.1,0.1c0,0.1,0.1,0.3,0.2,0.4C38.1,43.4,38,43.2,37.9,43z M48.7,50.9c0.4,0,0.9,0,1.3-0.1c-0.6,0.2-1.3,0.3-1.9,0.5
			C48.3,51.1,48.5,51,48.7,50.9z M48.3,49.5c0.4,0,0.8-0.1,1.1-0.2c0,0-0.1,0.1-0.1,0.1c-0.1,0.1-0.1,0.1-0.2,0.2
			C48.8,49.6,48.5,49.5,48.3,49.5z M52.6,50.5c1,0,2-0.2,2.9-0.3c-3.4,2-7.7,2.6-11.7,1.9c-0.9-0.2-1.8-0.4-2.7-0.7
			c-2.5-1.8-4.4-4.4-5.5-7.4c0.3,0.8,0.7,1.5,1.1,2.2c1.7,2.7,4.1,5,7.3,5.7C47,52.6,50,51.9,52.6,50.5z M60.2,47.7
			c0.4-0.2,0.8-0.4,1.2-0.7c0,0.3-0.1,0.6-0.2,0.8c-0.4,0.2-0.8,0.3-1.2,0.4C60.1,48.1,60.2,47.9,60.2,47.7z M60.1,42.9
			c0.1-0.2,0.1-0.3,0.2-0.5c0,0.1,0,0.2,0,0.4C60.2,42.8,60.2,42.9,60.1,42.9z M62.4,46.5c0.9-0.6,1.8-1.2,2.6-1.9
			c-0.7,1-1.5,1.9-2.4,2.8c-0.1,0-0.3,0.1-0.4,0.2C62.3,47.2,62.3,46.9,62.4,46.5z M62.4,33c0,0,0-0.1,0-0.1L62.4,33
			C62.4,33,62.4,33,62.4,33z M65.2,45.8c-0.2,0.2-0.3,0.5-0.5,0.7c-0.1,0-0.1,0.1-0.2,0.1C64.7,46.3,64.9,46,65.2,45.8z M63.5,47.9
			c-0.6,0.6-1.2,1.2-1.9,1.7c0-0.1,0.1-0.2,0.1-0.3c0.4-0.4,0.9-0.8,1.3-1.2C63.2,48,63.3,48,63.5,47.9z M62.2,29.9
			c-0.1-0.1-0.2-0.2-0.3-0.3c-0.4-0.4-0.8-0.7-1.3-1c-0.7-1.3-1.6-2.6-2.6-3.7c0.9,0.3,1.7,0.7,2.5,1.2c0.4,0.3,0.9,0.6,1.2,1
			C62.2,28,62.3,28.9,62.2,29.9z M61.7,30.4c0.2,0.2,0.3,0.3,0.5,0.5c0,0.1,0,0.3-0.1,0.4c-0.1,0-0.2-0.1-0.2-0.2
			c-0.1-0.3-0.2-0.6-0.4-0.9C61.5,30.3,61.6,30.3,61.7,30.4z M62.1,36.2c0,0.4,0,0.8,0,1.1c0,0-0.1,0.1-0.1,0.1
			c-0.1-0.2-0.1-0.5-0.2-0.7C61.9,36.6,62,36.4,62.1,36.2z M61.9,40.8c-0.1,0.3-0.1,0.6-0.2,0.9c-0.2,0.2-0.4,0.3-0.6,0.5
			c0-0.7,0-1.4-0.1-2c0.2-0.2,0.5-0.5,0.7-0.8C61.7,39.9,61.8,40.3,61.9,40.8z M61.9,43.6c0,0.8-0.1,1.7-0.2,2.5
			c-0.4,0.2-0.8,0.4-1.1,0.6c0-0.1,0.1-0.3,0.1-0.4C61.2,45.4,61.6,44.5,61.9,43.6z M61,48.8c-0.3,0.2-0.5,0.4-0.8,0.6
			c-0.3,0.3-0.7,0.5-1,0.8c0.2-0.3,0.3-0.6,0.4-1c0.2-0.1,0.5-0.1,0.7-0.2C60.6,49,60.8,48.9,61,48.8z M59.8,46.1
			c-0.4,0.5-0.7,1.1-1.1,1.5c-1.1,0.5-2.3,0.9-3.4,1.3c1.3-1,2.5-2.1,3.4-3.4c0.5-0.3,0.9-0.5,1.4-0.8C60,45.1,60,45.6,59.8,46.1z
			 M59.2,48.3c0,0.1-0.1,0.2-0.1,0.3c0,0-0.1,0-0.1,0c0,0-0.1,0-0.1,0C58.9,48.6,59,48.5,59.2,48.3C59.1,48.3,59.2,48.3,59.2,48.3z
			 M58.6,49.6c-0.3,0.6-0.6,1.2-0.9,1.7c-0.9,0.6-1.9,1.2-2.9,1.7c-3.4,1-7.1,1.1-10.4,0.1c-0.2,0-0.3-0.1-0.5-0.2
			c4.8,0.8,9.9,0,13.7-3.1C58,49.7,58.3,49.6,58.6,49.6z M55.6,47.7c-0.8,0.7-1.7,1.3-2.7,1.9c-0.4,0.1-0.9,0.2-1.3,0.2
			c-0.5,0-0.9,0-1.4,0c0.3-0.3,0.5-0.5,0.8-0.8c2-0.6,4-1.5,5.9-2.5C56.4,46.9,56,47.3,55.6,47.7z M36.2,26.3
			c0.2-0.1,0.4-0.1,0.7-0.2c-0.9,1.5-1.6,3-2.1,4.7c0,0.1-0.1,0.3-0.1,0.4c-0.1,0.1-0.2,0.2-0.2,0.3C34.8,29.6,35.4,27.9,36.2,26.3z
			 M35.4,25.7c0.2-0.2,0.3-0.3,0.5-0.5c-0.1,0.1-0.2,0.2-0.2,0.4c0,0,0,0-0.1,0C35.5,25.7,35.4,25.7,35.4,25.7z M36.8,25.2
			c0.5-0.8,1.1-1.4,1.8-2c0.3-0.2,0.5-0.3,0.8-0.4c0,0,0,0,0.1,0c-0.7,0.7-1.3,1.5-1.9,2.3C37.3,25.1,37.1,25.2,36.8,25.2z
			 M34.7,40.9c-0.1-0.3-0.1-0.6-0.2-0.9c0,0,0.1,0.1,0.1,0.1C34.6,40.4,34.6,40.7,34.7,40.9z M33.3,33.8c-0.1,0.5-0.2,0.9-0.2,1.4
			c-0.7-1.8-0.9-3.7-0.6-5.6c0.3-0.6,0.7-1.2,1.1-1.8c0.1-0.2,0.3-0.4,0.4-0.6c0.3-0.2,0.6-0.4,1-0.5C34,28.9,33.5,31.4,33.3,33.8z
			 M34.4,37.5c-0.1-0.2-0.2-0.3-0.3-0.5c-0.1-1-0.1-2,0-3c0-0.2,0.1-0.3,0.1-0.5C34.1,34.9,34.1,36.2,34.4,37.5z M33.3,37.3
			c0,0.5,0.1,0.9,0.1,1.4c0.5,4.3,2.3,8.9,5.5,12c-1.5-0.6-3-1.3-4.4-2.2c-0.8-1.1-1.5-2.3-2.1-3.5c-1-2-2-4.2-2.7-6.4
			c0.3-2.4,1-4.8,1.9-7C31.7,33.6,32.2,35.6,33.3,37.3z M46.8,50.9c-0.6,0.2-1.3,0.3-2,0.1c-1.5-0.2-2.8-1-3.8-2.1
			c-0.4-0.5-0.8-1-1-1.6c0.9,1,1.8,1.8,3,2.5C44.2,50.4,45.5,50.8,46.8,50.9z M43.2,49c0.7,0.3,1.4,0.5,2.1,0.6
			c0.7,0.2,1.4,0.4,2.1,0.6c-1,0-1.9-0.2-2.8-0.5C44.1,49.5,43.6,49.2,43.2,49z M35.6,34.6c0-0.3,0-0.7,0-1c0.1-0.9,0.3-1.9,0.5-2.8
			c0.4-0.3,0.8-0.5,1.2-0.7C36.5,31.5,35.9,33,35.6,34.6z M36.5,29.7c0.2-0.6,0.4-1.1,0.6-1.7c0.3-0.7,0.7-1.4,1.1-2.1
			c0.1-0.1,0.1-0.1,0.2-0.2c0.6-0.1,1.1-0.2,1.7-0.2c0,0,0,0,0,0c-0.5,0.8-1,1.7-1.4,2.6c-0.2,0.3-0.5,0.6-0.7,0.9
			C37.5,29.2,37,29.4,36.5,29.7z M39.9,24.7C39.9,24.7,40,24.7,39.9,24.7c0.4-0.2,0.8-0.3,1.1-0.5c-0.1,0.1-0.2,0.3-0.3,0.4
			C40.5,24.6,40.2,24.7,39.9,24.7z M41.2,25.4c0.1,0,0.2,0,0.4,0c-0.3,0.2-0.6,0.5-0.8,0.7C40.8,25.9,41,25.6,41.2,25.4z M40.5,20.4
			c-0.6,0.1-1.2,0.3-1.8,0.5c1-0.5,2.1-0.9,3.2-1.2c0.2,0.1,0.3,0.3,0.5,0.4C41.8,20.1,41.2,20.2,40.5,20.4z M38.8,21.9
			c-0.3,0.2-0.6,0.5-0.9,0.8c-0.8,0.5-1.5,1-2.2,1.6c-0.7,0.6-1.3,1.3-1.9,2c0.8-1.4,1.9-2.6,3.2-3.4C37.6,22.5,38.2,22.2,38.8,21.9
			z M29.1,35v-0.3c0-0.5,0-0.9,0.1-1.4c0.2-0.5,0.3-1,0.5-1.5c0.6-1.1,1.4-2,2.2-2.9c0,0.1,0,0.2-0.1,0.3c-1.2,2.3-2.1,4.8-2.6,7.3
			C29.2,36.1,29.1,35.5,29.1,35z M29.5,42v-0.1c0,0.2,0.1,0.3,0.2,0.5c0.6,1.5,1.4,3,2.3,4.4c-0.2-0.1-0.4-0.3-0.6-0.4
			c-0.2-0.5-0.5-1.1-0.7-1.6C30.2,43.9,29.8,43,29.5,42z M29.6,44.9c0-0.2,0-0.3,0-0.5c0.1,0.2,0.2,0.5,0.3,0.8
			C29.8,45,29.7,44.9,29.6,44.9z M30.9,49.5c-0.1-0.2-0.2-0.5-0.3-0.7c0.3,0.5,0.7,0.9,1,1.4C31.4,49.9,31.2,49.7,30.9,49.5z
			 M30,46.3c0.3,0.2,0.5,0.5,0.8,0.7c0.4,0.8,0.8,1.6,1.2,2.3C31.2,48.4,30.6,47.3,30,46.3z M35.9,53.1c-1.7-1.3-2.9-3.2-3.8-5.1
			c0.4,0.3,0.8,0.6,1.2,0.8c0.9,1.1,1.8,2.1,2.9,3c0.9,0.9,1.9,1.7,2.9,2.4c0.3,0.2,0.6,0.4,1,0.6C38.6,54.4,37.2,53.8,35.9,53.1z
			 M48.4,55.5c-1.4,0.1-2.9,0.1-4.3,0c-2.6-0.9-5-2.2-7.1-4c-0.5-0.4-0.9-0.9-1.3-1.4c1.3,0.6,2.6,1.2,3.8,1.6
			c0.3,0.1,0.7,0.2,1.1,0.4c0.1,0.1,0.2,0.2,0.4,0.2c3.2,2,7,2.5,10.8,2C50.7,54.8,49.6,55.2,48.4,55.5z M55.3,54.4
			c-1,0.2-1.9,0.5-2.9,0.7c1-0.4,2-0.9,2.9-1.4c0.3-0.1,0.6-0.2,0.9-0.3C55.9,53.7,55.6,54,55.3,54.4z M59.7,52.2
			c-0.9,0.6-1.8,1.1-2.8,1.6c0.3-0.3,0.5-0.7,0.8-1c0.8-0.3,1.5-0.7,2.3-1.1C59.9,51.9,59.8,52,59.7,52.2z M60.5,50.4
			c-0.3,0.2-0.6,0.4-0.9,0.6c0.3-0.2,0.7-0.5,1-0.8C60.5,50.3,60.5,50.4,60.5,50.4z M62,51.7c-0.3,0.2-0.5,0.3-0.8,0.5
			c0.8-0.6,1.6-1.2,2.3-1.8c0.1-0.1,0.2-0.2,0.3-0.3C63.3,50.6,62.7,51.2,62,51.7z M60.9,51.4c0.1-0.2,0.1-0.3,0.2-0.5
			c1.5-1,2.9-2.3,4-3.8c0.2-0.1,0.4-0.2,0.6-0.3C64.3,48.6,62.7,50.1,60.9,51.4z M66.6,45.1c0,0.2-0.1,0.3-0.1,0.5
			c-0.1,0.1-0.2,0.1-0.3,0.2c0.2-0.3,0.3-0.6,0.5-0.9C66.6,45,66.6,45,66.6,45.1z M69.1,40.6c-0.4,1.1-0.9,2.2-1.3,3.3
			c-0.1,0.2-0.1,0.3-0.2,0.5c0,0.1-0.1,0.2-0.1,0.2c0.1-0.6,0.1-1.2,0.1-1.8c0.1-0.2,0.1-0.4,0.2-0.6C68.2,41.7,68.6,41.1,69.1,40.6
			z M66.6,31.6c0-0.1-0.1-0.2-0.1-0.2c0-0.1,0-0.1,0-0.2C66.5,31.4,66.6,31.5,66.6,31.6z M66.5,33.2c0.6,1.4,1,3,1,4.5
			c0,0.8-0.2,1.5-0.3,2.3c-0.1-0.4-0.2-0.7-0.3-1.1C66.7,38,66.4,37,66,36.1C66.3,35.1,66.5,34.2,66.5,33.2z M66.2,39.4
			c0.2,0.8,0.3,1.5,0.4,2.3c-0.1,0.3-0.2,0.5-0.4,0.8c-1.2,1.1-2.4,2.1-3.8,3c0.1-0.5,0.1-0.9,0.1-1.4c0-0.5,0-1,0-1.5
			c0.8-0.8,1.5-1.6,2-2.5c0.4-0.8,0.7-1.6,0.8-2.4c0-0.1,0.1-0.2,0.1-0.3C65.9,38,66.1,38.7,66.2,39.4z M63.3,29
			c0.5,0.9,0.8,2,0.8,3.1c-0.2-0.3-0.5-0.7-0.7-1C63.4,30.4,63.4,29.7,63.3,29z M63.8,34c-0.2,0.8-0.5,1.5-0.8,2.2
			c0,0.1-0.1,0.1-0.1,0.2c0-0.6-0.1-1.1-0.2-1.7c0.2-0.5,0.3-1,0.4-1.5C63.4,33.4,63.6,33.7,63.8,34z M62.9,37.7
			c0.1-0.2,0.2-0.4,0.3-0.5c0.4-0.6,0.9-1.3,1.2-2c0.2,0.5,0.3,1.1,0.3,1.6c0,0.2,0,0.3,0,0.5c-0.5,1.2-1.2,2.3-2.1,3.3
			C62.8,39.7,62.9,38.7,62.9,37.7z M64.5,29.9c0.3,0.3,0.5,0.7,0.8,1.1c-0.1,0.5-0.3,1-0.5,1.5C64.9,31.6,64.8,30.7,64.5,29.9z
			 M65.5,34.8c-0.1-0.3-0.3-0.6-0.4-0.9c0.2-0.5,0.4-1.1,0.6-1.6C65.7,33.1,65.7,34,65.5,34.8z M68,23C68,23,68,23,68,23
			c-0.3-0.4-0.6-0.8-0.8-1.2C67.5,22.2,67.8,22.6,68,23z M67.3,23.4c0.2,0.4,0.5,0.8,0.7,1.2c-0.3-0.2-0.6-0.3-0.9-0.5
			c-0.1,0-0.2-0.1-0.3-0.2c-0.5-0.7-1.1-1.4-1.7-2.1C65.9,22.3,66.6,22.8,67.3,23.4z M65.8,19.1C65.8,19.1,65.8,19.1,65.8,19.1
			c0.1,0,0.1,0.1,0.1,0.1C65.8,19.2,65.8,19.1,65.8,19.1C65.7,19.1,65.8,19.1,65.8,19.1z M64.5,19.9c0.4,0.4,0.8,0.8,1.2,1.3
			c-0.8-0.6-1.7-1.1-2.5-1.6c-0.3-0.3-0.6-0.6-0.8-0.8C63,19.1,63.7,19.5,64.5,19.9z M55.1,16.2c1.6,0.4,3.2,0.9,4.7,1.5
			c0.2,0.1,0.4,0.3,0.5,0.4C58.6,17.3,56.9,16.7,55.1,16.2C55.1,16.2,55.1,16.2,55.1,16.2z M54.6,17.5c2,0.8,4,1.9,5.8,3
			c0.3-0.2,0.5-0.3,0.8-0.4c-0.4-0.2-0.7-0.5-1.1-0.7c-1.1-0.7-2.4-1.3-3.6-1.9c1.9,0.6,3.8,1.5,5.6,2.5c1.6,0.1,2.9,1.3,2.9,3
			c0,0,0,0,0,0c0.1,0.1,0.1,0.1,0.2,0.2c-0.1,0-0.1-0.1-0.2-0.1c0,0.6-0.2,1.2-0.6,1.7c0.3,0.4,0.6,0.9,0.7,1.5
			c-0.3-0.4-0.7-0.7-1.1-1.1c-0.3,0.3-0.6,0.5-1,0.6c0.6,0.7,1.2,1.4,1.7,2.2c0.2,0.6,0.4,1.2,0.6,1.8c-0.2-0.3-0.5-0.6-0.7-1
			c-0.8-1-1.6-1.9-2.4-2.8c-0.1,0-0.1,0-0.2,0c-0.9,0-1.8-0.4-2.3-1.1c-0.4-0.2-0.8-0.4-1.2-0.5c-0.5-0.2-1.1-0.4-1.7-0.5
			c-0.3-0.2-0.5-0.4-0.8-0.6c1.2,0.2,2.4,0.6,3.4,1.3c-0.2-0.4-0.4-0.9-0.4-1.4c0-0.2,0-0.4,0.1-0.7c-0.1-0.1-0.2-0.2-0.4-0.3
			c0,0,0,0,0.1,0c0.1,0.1,0.2,0.2,0.3,0.2c0.1-0.6,0.4-1,0.8-1.4c-0.5-0.2-0.9-0.3-1.4-0.5c-0.1,0-0.2-0.1-0.2-0.1
			c-0.9-0.6-1.9-1.1-3-1.5c-0.4-0.2-0.8-0.4-1.1-0.6C54.4,17.9,54.5,17.7,54.6,17.5z M55.2,21.8c0.5,0.2,1.1,0.4,1.6,0.7
			c-0.3-0.1-0.6-0.1-1-0.2c-0.4,0-0.8-0.1-1.2-0.1c-0.2-0.1-0.5-0.3-0.8-0.4C54.3,21.8,54.7,21.8,55.2,21.8z M53.7,20.6
			c0.7,0.1,1.4,0.2,2.1,0.4c0,0,0.1,0,0.1,0c-0.3,0-0.5,0-0.8,0C54.7,20.8,54.2,20.7,53.7,20.6z M57.3,21.8
			C57.3,21.9,57.3,21.9,57.3,21.8c0.2,0.1,0.3,0.1,0.4,0.2C57.5,22,57.4,21.9,57.3,21.8z M53.9,17.2c-0.1,0.2-0.2,0.4-0.3,0.6
			c-0.1,0-0.2-0.1-0.2-0.1c-0.1-0.3-0.3-0.6-0.4-0.8C53.2,16.9,53.6,17,53.9,17.2z M53.7,23.2c-0.1,0-0.3,0-0.4,0
			c-0.1,0-0.2-0.1-0.3-0.2c0.1,0,0.3,0,0.4,0C53.5,23.1,53.6,23.1,53.7,23.2z M53.2,24c0.2,0.1,0.5,0.3,0.7,0.4
			c0.6,0.3,1.2,0.6,1.8,0.9c-0.1-0.2-0.3-0.5-0.4-0.7c-0.1-0.2-0.3-0.3-0.4-0.5c0.1,0,0.2,0,0.2,0c0.5,0.5,1,1,1.3,1.6
			c0.5,0.3,0.9,0.7,1.3,1.1c-0.1-0.5-0.3-1-0.6-1.6c-0.2-0.3-0.4-0.6-0.7-0.9c0,0,0.1,0,0.1,0c1.1,1,2,2.1,2.8,3.4
			c-0.4-0.2-0.8-0.3-1.2-0.5c0.4,0.4,0.7,0.8,1.1,1.3c0.3,0.2,0.6,0.3,0.9,0.5c0.2,0.4,0.4,0.9,0.6,1.3c-0.2-0.1-0.4-0.2-0.5-0.2
			c0.2,0.4,0.4,0.7,0.5,1.1c0.1,0.1,0.3,0.2,0.4,0.2c0.1,0.4,0.3,0.8,0.4,1.3c-0.1,0.2-0.1,0.3-0.2,0.5c0.1,0.4,0.2,0.9,0.2,1.3
			c0.1-0.2,0.2-0.3,0.3-0.5c0,0.2,0.1,0.3,0.1,0.5c-0.1,0.3-0.2,0.5-0.3,0.8c0,0.2,0,0.4,0,0.7c0,3.4-1.3,6.4-3.5,8.7c0,0,0,0,0,0
			c0,0,0,0,0,0.1c0,0-0.1,0-0.1,0.1c-2.3,2.4-5.5,3.8-9.1,3.8c-0.4,0-0.9,0-1.3-0.1c-0.7,0.1-1.4,0.1-2.2,0c-1.8-0.6-3.5-1.6-5-2.8
			c-0.3-0.4-0.5-0.7-0.7-1.1c-1.6-1.7-2.8-3.8-3.3-6.2c-0.1-0.1-0.1-0.3-0.2-0.4c0-0.3-0.1-0.7-0.1-1c0-0.3,0-0.7,0-1
			c0,0,0-0.1,0-0.1c0-7,5.7-12.7,12.7-12.7c1.2,0,2.4,0.2,3.5,0.5c0.1,0,0.2,0,0.2,0C52.8,23.9,53,24,53.2,24z M51.3,16.3
			c0.2,0.2,0.5,0.4,0.7,0.6c0,0,0,0,0,0c-0.4-0.2-0.8-0.4-1.3-0.6C50.9,16.3,51.1,16.3,51.3,16.3z M48.5,16.1
			c1.3,0.6,2.5,1.2,3.8,1.8c0.1,0,0.1,0.1,0.2,0.1c-0.7-0.1-1.5-0.1-2.2-0.1c-2.6-0.7-5.3-1-8-0.7c0-0.1,0-0.2,0-0.3
			C44.3,16.4,46.4,16.1,48.5,16.1z M42,18.7c-0.2-0.2-0.3-0.3-0.5-0.5c0.1,0,0.2,0,0.2,0C41.8,18.3,41.9,18.5,42,18.7z M41.5,17.2
			c0,0,0,0.1,0,0.1c-0.2,0-0.3,0.1-0.5,0.1c0,0,0,0,0,0C41.2,17.3,41.4,17.2,41.5,17.2z M40.8,18.5c0.1,0.2,0.2,0.3,0.4,0.5
			c-1.8,0.6-3.6,1.5-5.2,2.6c0.8-0.9,1.8-1.8,2.7-2.7c0.7-0.2,1.3-0.4,2-0.5C40.7,18.4,40.7,18.4,40.8,18.5z M35.6,18.6
			c1.4-1,2.9-1.7,4.5-2.3c0,0.1,0,0.1,0,0.2c-0.2,0.2-0.5,0.4-0.7,0.6c-1,0.5-2,1-2.9,1.7c-0.9,0.4-1.7,1-2.5,1.6
			C34.5,19.8,35,19.2,35.6,18.6z"/>
		<path fill="#414042" d="M83.5,24.4c-1.8-4.2-4.5-8-7.8-11.1c-1.1-1.2-2.4-2.2-3.7-3.1c-0.6-0.4-1.2-0.8-1.8-1.2
			c-5.3-3.4-11.6-5.7-18-6.7c-0.2-0.1-0.4-0.1-0.6-0.2c-3.7-1-7.4-1.1-11.1,0c-3.5,1-6.6,3-9.4,5.3c-0.2,0.2-0.4,0.4-0.7,0.6
			c-2.3,1.3-4.1,3.2-5.2,5.6c-0.1,0.3-0.2,0.5-0.4,0.8c-0.3,0.5-0.7,1-1,1.5c-0.3,0.3-0.6,0.6-0.9,0.9c-7.7,7.5-12.1,19.6-7.2,29.8
			c0.7,1.4,1.5,2.6,2.4,3.7c0.3,5.2,1.6,10.3,4.7,14.4c0.7,1.7,1.7,3.4,3.3,4.3c0.7,0.4,1.5,0.6,2.4,0.7c4.2,2.5,9.1,3.5,14,3.2
			C52.9,73.9,64,69.6,72,62.9c5.4-4.5,9.7-10.3,12-17C86.3,38.9,86.3,31.2,83.5,24.4z M82,35c-0.3,1.6-0.7,3-1.3,4.5
			c0.2-2.2,0.2-4.4-0.1-6.6c0-0.2,0-0.3-0.1-0.5c0.4-2.3,0.5-4.5,0.3-6.9c-0.1-1.1-0.3-2.2-0.5-3.3c0.2,0.2,0.4,0.4,0.6,0.5
			c1,1.1,1.2,2.5,1.4,4C82.6,29.5,82.5,32.3,82,35z M81.8,22.7C81.3,22,80.7,21.5,80,21c-0.3-1.1-0.7-2.1-1.2-3.1
			C79.9,19.4,81,21,81.8,22.7z M79.1,39.7c0-0.3,0-0.7-0.1-1c0-0.2,0.1-0.4,0.1-0.6c0.2-0.7,0.5-1.4,0.7-2.1
			c0.1,1.2,0.2,2.5,0.1,3.7c-0.1,1-0.3,2-0.5,3.1c0,0.1-0.1,0.1-0.1,0.2c-0.1,0.3-0.2,0.5-0.3,0.8C79.1,42.3,79.2,41,79.1,39.7z
			 M79.5,34.1v-0.7c0,0.1,0,0.3,0.1,0.4C79.5,33.9,79.5,34,79.5,34.1z M75.5,19.8c-0.3-0.6-0.7-1.1-1.1-1.7c1.1,0.7,2.1,1.4,3.2,2.1
			c0.5,0.4,1.1,0.8,1.7,1.2c0.8,2.7,1,5.6,0.8,8.4C79.3,26.2,77.7,22.8,75.5,19.8z M76.8,26.7c0-0.1-0.1-0.2-0.1-0.3
			c-0.1-0.5-0.2-1.1-0.4-1.6c-0.9-3.4-2.9-6.3-5.6-8.5c-0.5-0.4-1.1-0.9-1.7-1.3c0.9,0.5,1.8,0.9,2.6,1.4c0.2,0.2,0.4,0.4,0.6,0.6
			c2.4,3.1,4.4,6.6,5.7,10.3c0.6,2.3,0.9,4.8,0.8,7.2c0,0.5-0.1,1-0.1,1.5c-0.2-0.8-0.4-1.5-0.6-2.3C78.1,31.3,77.8,28.9,76.8,26.7z
			 M73.7,27.9c1,1.3,1.8,2.8,2.4,4.3c0,0.6-0.1,1.3-0.2,1.9C75.6,31.9,74.8,29.8,73.7,27.9z M75.5,36.9c0,0.1,0,0.2-0.1,0.4
			c0-0.1,0-0.2,0-0.2c0-0.1,0.1-0.2,0.1-0.4C75.5,36.7,75.5,36.8,75.5,36.9z M75.5,45.8c0.5-0.9,1-1.8,1.5-2.7
			c0,0.2-0.1,0.4-0.1,0.6c-0.8,2.1-1.7,4-2.9,5.9c-0.1,0.2-0.2,0.3-0.3,0.5c0.4-0.9,0.9-1.8,1.2-2.7C75.1,46.8,75.3,46.3,75.5,45.8z
			 M76.3,36.7c0.1-0.6,0.2-1.2,0.3-1.9c0-0.3,0.1-0.6,0.1-0.9c0.1,0.5,0.3,1,0.4,1.5c0,0.5-0.1,1-0.2,1.6c-0.2,1.3-0.5,2.6-0.8,3.9
			C76.4,39.5,76.4,38.1,76.3,36.7z M77,30.9c0-0.3,0-0.5,0-0.8c0.1,0.4,0.1,0.8,0.2,1.2C77.1,31.2,77,31.1,77,30.9z M76.8,41.8
			c0.3-1,0.5-2.1,0.7-3.1c0,0.6,0,1.1-0.1,1.7C77.2,40.8,77,41.3,76.8,41.8z M51.4,8.4c-0.5-0.1-1-0.2-1.6-0.3
			c-0.9-0.3-1.9-0.6-2.8-0.8c-0.5-0.1-1-0.2-1.5-0.3c0.6-0.1,1.2-0.2,1.8-0.3c2,0.5,3.9,1.2,5.8,2.1C52.5,8.7,51.9,8.5,51.4,8.4z
			 M52.7,10.7c-0.2,0-0.3-0.1-0.4-0.1c0.1,0,0.2,0,0.3,0C52.6,10.6,52.6,10.6,52.7,10.7z M42.6,7.6c0.7,0,1.5,0,2.2,0.1
			c-1.1,0-2.3,0.1-3.4,0.2C41.8,7.8,42.2,7.7,42.6,7.6z M41.6,6.8c0.3-0.1,0.5-0.1,0.8-0.2c-0.2,0-0.4,0.1-0.5,0.1
			C41.8,6.8,41.7,6.8,41.6,6.8z M50.8,5.6c-1.9-0.2-3.9-0.3-5.8-0.1c0,0-0.1,0-0.2,0c0.9-0.2,1.8-0.4,2.7-0.5c2.7-0.2,5.3,0,7.9,0.6
			C53.9,5.6,52.3,5.6,50.8,5.6z M56.5,6.5c0.9,0.1,1.7,0.2,2.6,0.3c2,0.8,3.9,1.7,5.7,2.9c1,0.8,1.9,1.5,2.9,2.4
			c-3.6-2.5-7.6-4.3-11.8-5.4c-0.3-0.1-0.6-0.2-0.9-0.2C55.5,6.5,56,6.5,56.5,6.5z M49.6,8.9c0.6,0.2,1.1,0.5,1.7,0.8h-0.3
			c-0.8,0-1.6,0.1-2.4,0.1c-2.3-0.4-4.7-0.5-7.1-0.4c-1.3-0.3-2.6-0.2-3.9,0.2c0.1,0,0.1-0.1,0.2-0.2c0.2,0,0.3-0.1,0.5-0.1
			C41.9,8.3,45.8,8.2,49.6,8.9z M49.3,6.5c0.1,0,0.1,0,0.2,0c3.3,0.1,6.3,1.3,9,3.2c-0.8-0.2-1.7-0.4-2.5-0.5l-0.4,0
			C53.5,8.2,51.4,7.2,49.3,6.5z M56.8,7.7c4.4,1.3,8.7,3.5,12.3,6.4c-1.6-0.8-3.2-1.6-4.9-2.3c-1.1-0.5-2.3-1-3.5-1.4
			C59.5,9.4,58.2,8.5,56.8,7.7z M78.9,46.7c-0.3,1.1-0.6,2.2-1.1,3.2c0-0.4,0.1-0.7,0.1-1.1c0,0,0-0.1,0-0.2
			C78.4,48.1,78.7,47.4,78.9,46.7z M70.9,10.5c1.6,1.1,3.1,2.3,4.4,3.5c0,0,0.1,0.1,0.1,0.1c1.6,1.8,2.7,3.8,3.5,6.1
			c-1.8-1.3-3.7-2.6-5.7-3.7c-2.2-2.8-4.8-5.2-7.7-7.2c-0.8-0.6-1.6-1.2-2.4-1.7C65.8,8.1,68.5,9.1,70.9,10.5z M65.6,7.4
			c-1.4-0.4-2.8-0.8-4.2-1c-1.2-0.8-2.5-1.4-3.8-2C60.3,5.1,63,6.1,65.6,7.4z M40.3,3.5c3.7-1.2,7.6-1.1,11.3-0.5
			c0.2,0,0.4,0.1,0.7,0.1c0.4,0.1,0.8,0.2,1.2,0.4c1.9,0.7,3.7,1.5,5.5,2.4c-3.1-1.1-6.3-1.7-9.7-1.8c-2.2,0-4.4,0.3-6.4,1.1
			c-2.4-0.2-4.9,0-7.3,0.6C37,4.9,38.6,4.1,40.3,3.5z M33.6,7.3c1.7-0.6,3.5-1,5.2-1.2C39.6,6,40.4,6,41.2,6l-0.6,0.3
			C38.3,7,36.1,8,34.1,9.3c-0.6,0.3-1.1,0.7-1.6,1c-1.2,0.5-2.4,1.1-3.5,1.8c0.9-1.1,1.9-2.2,2.9-3.3C32.4,8.3,33,7.8,33.6,7.3z
			 M30.9,8.6c0.1-0.1,0.2-0.1,0.3-0.2c-0.6,0.6-1.2,1.3-1.8,2c-0.8,0.9-1.6,1.9-2.3,3c-0.4,0.3-0.8,0.6-1.2,0.9
			C27.4,12.1,29,10.3,30.9,8.6z M24.2,18.2C24.3,18.1,24.3,18.1,24.2,18.2c0,0,0,0.1-0.1,0.2C24.2,18.3,24.2,18.2,24.2,18.2z
			 M24.6,19.4c1.7-2.4,3.7-4.7,6-6.6c0.1,0,0.2-0.1,0.2-0.1c0.3-0.1,0.6-0.3,0.9-0.4c-0.1,0.1-0.2,0.2-0.4,0.4
			c-1.2,1-2.2,2.1-3.3,3.2c1.2-1.2,2.6-2.2,4.3-3c0.8-0.4,1.7-0.6,2.5-0.8c0.4-0.4,0.7-0.8,1.1-1.2c0,0,0,0,0,0
			c1.7-0.4,3.5-0.6,5.3-0.7c0.3,0.1,0.6,0.2,1,0.3c0.3,0.1,0.4-0.1,0.5-0.3c0.9,0,1.8,0,2.7,0.1c-1.2,0.2-2.3,0.5-3.5,0.9
			c-0.5,0.1-1.1,0.3-1.6,0.4c0.1,0,0.2,0,0.3,0c1.2,0,2.4,0,3.6,0c0.4-0.1,0.8-0.1,1.3-0.1l-0.3,0.1c0.7,0,1.3,0,2,0c0,0,0,0,0,0
			c0,0,0,0,0,0c0.6,0,1.2,0,1.7,0c0.1-0.1,0.2-0.1,0.3-0.2c0.5,0,1,0.1,1.6,0.2c1.4,0,2.7,0,4.1,0c-0.4-0.1-0.7-0.2-1.1-0.4
			c-0.1-0.2-0.3-0.4-0.4-0.5c1,0,2,0.2,3,0.4c0.2,0.1,0.5,0.2,0.7,0.3c0.1,0.1,0.2,0.2,0.4,0.2c1.5,0.1,3.1,0.1,4.6,0.4
			c4,0.8,7,2.7,8.9,5.8c0.4,0.4,0.9,0.8,1.2,1.3c1.2,1.4,2.1,3.1,2.7,4.8c-0.7-1-1.6-2-2.5-2.9c0,0.1,0.1,0.2,0.1,0.2
			c0.1,0.5,0.2,0.9,0.3,1.4c1,1.1,1.9,2.3,2.6,3.6c0.1,0.1,0.1,0.3,0.2,0.4c0.1,0.5,0.2,1,0.2,1.5c0,0.4,0.1,0.8,0.1,1.1
			c-0.8-1.5-1.7-2.9-2.7-4.2c0.1,1.1,0.1,2.3,0.1,3.4c0,1,0,2,0,3.1c0.5,1.8,0.9,3.6,1.1,5.4c-0.2,0.9-0.6,1.7-1.1,2.5
			c0,0.5,0,0.9,0,1.4c0.4-0.6,0.9-1.3,1.2-1.9c0,0.4,0,0.7,0,1.1c-0.3,1.1-0.7,2.3-1.2,3.4c0,0.7,0,1.4,0,2.2
			c0.3-0.6,0.6-1.2,0.8-1.8c-0.1,0.5-0.2,0.9-0.4,1.4c-0.1,0.5-0.3,1-0.5,1.5c-0.1,1-0.2,2-0.4,3c-0.4,2.1-1.1,3.9-2.2,5.4
			c1-1,1.9-2.1,2.8-3.2c1.7-2.3,3-4.9,3.8-7.7c0.3-0.8,0.5-1.6,0.8-2.4c-0.1,2.7-0.6,5.3-1.6,7.8c-1.9,3.1-4.5,5.8-7.6,7.8
			c0.3-0.3,0.5-0.7,0.7-1c-1.5,1.6-3.5,2.9-6,3.6c-0.5,0.1-0.9,0.3-1.4,0.4c-0.5,0.3-1,0.6-1.5,0.8c-1.5,0.5-3,0.9-4.6,1.2
			c0.2-0.2,0.3-0.3,0.5-0.5c1.1-0.4,2.1-0.8,3.2-1.2c-1.1,0.1-2.2,0.1-3.3,0.1c-0.1,0-0.2,0-0.2,0c-0.1,0.1-0.2,0.2-0.3,0.2
			c-2.8,0.9-5.6,1.4-8.5,1.7c-1.9-0.3-3.8-0.8-5.6-1.3c0.8,0.1,1.5,0.1,2.3,0.2c2.3,0.3,4.7,0.2,7-0.6c0.1,0,0.2-0.1,0.4-0.1
			c-3.8,0-7.5,0-11.3,0c-1.2,0-2.4-0.1-3.5-0.2c1.1,0.4,2.2,0.8,3.4,1.1c0,0.4,0,0.7,0,1.1c-1.7-0.1-3.5-0.4-5.2-0.8
			c-0.5-0.3-1-0.6-1.5-1c0,0,0,0,0,0c0.7-0.2,1.4-0.4,2.1-0.5c-0.3-0.1-0.7-0.1-1-0.2c-0.2-0.1-0.4-0.1-0.6-0.2
			c-0.4,0.1-0.8,0.2-1.2,0.4c-0.6-0.5-1.1-1-1.7-1.5c0,0,0,0,0,0c-1.1-0.6-2.1-1.4-3-2.3c-0.8-0.4-1.6-0.7-2.4-1.1
			c0-0.3,0-0.5,0-0.8c0.7,0.6,1.4,1.2,2.1,1.7c-0.6-0.7-1.1-1.4-1.6-2.3c-0.2-0.1-0.3-0.3-0.5-0.4c0-0.1,0-0.2,0-0.3
			c0.1,0.1,0.1,0.1,0.2,0.2c-0.1-0.2-0.2-0.5-0.4-0.7c-0.2-0.4-0.3-0.9-0.5-1.3c-0.8-1-1.6-2-2.2-3.2c0-0.6-0.1-1.2-0.1-1.9
			c0.1,0.1,0.2,0.3,0.3,0.4c0.4,0.9,0.9,1.7,1.5,2.6c-0.1-0.8-0.2-1.6-0.3-2.5c-0.2-0.1-0.3-0.3-0.5-0.4c-0.1-0.2-0.1-0.3-0.2-0.5
			c0.2,0.3,0.4,0.5,0.7,0.8c0-0.4,0-0.8-0.1-1.2c0,0,0,0,0-0.1c-0.5-0.6-0.9-1.2-1.3-1.9c0.1-0.6,0.1-1.2,0.2-1.8
			c0.3,0.7,0.6,1.3,1,2c0-0.6,0-1.2,0-1.8c0-0.1-0.1-0.1-0.1-0.2c-0.2-0.5-0.4-1-0.6-1.5c0.1-0.5,0.2-1,0.3-1.5
			c0.1,0.3,0.1,0.6,0.2,0.9c0,0.1,0.1,0.3,0.1,0.4c0-1.8,0-3.6,0-5.4c0,0,0,0.1,0,0.1c-0.1-0.8-0.1-1.6-0.1-2.4c0-0.2,0-0.4,0.1-0.7
			c0,0,0,0,0,0c0-1.2,0-2.4,0-3.6c0,0.1-0.1,0.2-0.1,0.3c0.1-0.3,0.1-0.6,0.2-0.9c0-1.4,0.1-2.7,0.3-4.1c-0.2,0.3-0.4,0.6-0.5,1
			c-0.8,1.1-1.5,2.3-2.1,3.5c0.1-0.7,0.2-1.3,0.3-2c0.4-0.8,0.9-1.6,1.3-2.4c0.5-0.8,1-1.6,1.5-2.4c0.5-1.6,1.2-3.1,2.2-4.3
			c-0.5,0.6-1.1,1.3-1.5,2c-0.9,1.2-1.7,2.5-2.5,3.8C23.7,21.4,24.1,20.4,24.6,19.4z M72.7,58.5c-0.8,0.4-1.6,0.7-2.5,0.9
			c0.7-0.6,1.4-1.1,2.1-1.8c2-2,3.6-4.4,4.8-7c0,0.4,0,0.9,0,1.3C75.9,54.3,74.4,56.5,72.7,58.5z M76.8,54.1c-0.3,1.3-1,2.3-2,3.1
			C75.5,56.2,76.2,55.2,76.8,54.1z M48.7,65c-2.3,0.1-4.6,0-6.9-0.5c2.8,0.1,5.6,0,8.3-0.3c0.2,0,0.5-0.1,0.8-0.1
			C50.2,64.4,49.5,64.7,48.7,65z M49.3,65.8c-0.7,0.2-1.4,0.4-2.1,0.6c0,0-0.1,0-0.1,0c0.6-0.2,1.2-0.4,1.7-0.6
			C49,65.8,49.2,65.8,49.3,65.8z M43.2,62.9c-0.8,0-1.5,0-2.3-0.1c0-0.3,0-0.6,0-0.9c1.2,0.4,2.4,0.7,3.6,1H43.2z M44.1,65.7
			c0.7,0.1,1.4,0.1,2,0.1c-0.4,0.1-0.7,0.2-1.1,0.3c-1.4-0.2-2.7-0.4-4.1-0.7c0-0.1,0-0.1,0-0.1s0-0.1,0-0.1
			C41.9,65.4,43,65.6,44.1,65.7z M42.3,66.5c-0.3,0-0.7,0-1,0c0-0.1-0.1-0.2-0.1-0.2C41.6,66.3,42,66.4,42.3,66.5z M43.4,67.1
			c0.5-0.1,1-0.1,1.5-0.2c0.1,0,0.2,0,0.3,0c-1,0.2-2,0.5-3.1,0.7c-0.1-0.1-0.2-0.2-0.3-0.4C42.3,67.2,42.9,67.1,43.4,67.1z
			 M43.6,68.1c1.2-0.3,2.4-0.5,3.6-0.9c1.1,0.1,2.3,0.2,3.4,0.3c-0.5,0.5-1,0.9-1.6,1.2c-2.1,1.2-4.5,1.2-6.3-0.4
			C43,68.2,43.3,68.1,43.6,68.1z M49.4,66.6c1.1-0.3,2.1-0.7,3.2-1c-0.3,0.4-0.7,0.8-1,1.2C50.8,66.7,50.1,66.7,49.4,66.6z
			 M51.4,64.7c0.4-0.2,0.9-0.4,1.3-0.7c0.3,0,0.7,0,1,0c-0.1,0.1-0.1,0.1-0.2,0.2C52.8,64.5,52.1,64.6,51.4,64.7z M53,63
			C53,63,53,63,53,63C53,63,53,63,53,63L53,63z M54,65.1c1.2-0.3,2.5-0.7,3.7-1.1c1.7-0.2,3.4-0.5,5-1c-1.4,1.2-2.9,2.4-4.5,3.4
			c-1.9,0.3-3.8,0.4-5.7,0.3C53,66.2,53.5,65.6,54,65.1z M55.4,63.3c0.5-0.1,1-0.2,1.5-0.3c-0.2,0.1-0.5,0.2-0.7,0.3
			C56,63.3,55.7,63.3,55.4,63.3z M60.6,62.7c1.2-0.6,2.3-1.2,3.4-1.9c0.5-0.2,0.9-0.4,1.4-0.6c0.1,0,0.1,0,0.2,0c0,0,0,0,0.1,0
			c-0.5,0.5-0.9,0.9-1.4,1.4C63,62.1,61.8,62.5,60.6,62.7z M63.6,63.3c0.3-0.3,0.7-0.6,1-0.9c1.5-0.5,2.9-1.2,4.2-2
			c0.9-0.1,1.8-0.3,2.7-0.5c-1.5,1.5-3.3,2.8-5.2,3.9c-1.9,1.1-4,1.8-6.1,2.3C61.3,65.2,62.5,64.3,63.6,63.3z M66.1,60.9
			c0.2-0.2,0.3-0.3,0.4-0.5c0.2,0,0.3,0,0.5,0C66.7,60.6,66.4,60.7,66.1,60.9z M67.2,59.7c0.2-0.2,0.3-0.4,0.5-0.6
			c2.3-1.3,4.5-2.8,6.3-4.7c-1.6,2.1-3.5,3.9-5.7,5.3C67.9,59.7,67.5,59.7,67.2,59.7z M40.3,66.1c0,0.1,0.1,0.3,0.1,0.4
			c-1.2-0.1-2.3-0.3-3.5-0.7c-0.7-0.3-1.3-0.7-1.9-1.2C36.8,65.2,38.6,65.7,40.3,66.1z M33.9,63.2C33.9,63.2,33.9,63.1,33.9,63.2
			c1.1,0.3,2.3,0.6,3.4,0.8c0.9,0.4,1.8,0.7,2.7,0.9c0,0.1,0,0.2,0,0.3C38,64.7,35.9,64,33.9,63.2z M29.4,61.7c-0.3,0-0.5,0-0.8-0.1
			c-0.6-0.2-1.1-0.7-1.5-1.3c0-0.1-0.1-0.2-0.1-0.3C27.7,60.5,28.5,61.1,29.4,61.7z M25.8,56.2c0.6,0.3,1.2,0.6,1.9,0.9
			c0.5,0.2,1,0.4,1.5,0.7c0.4,0.5,0.7,1,1.1,1.4c0,0,0,0.1,0.1,0.1c0.1,0.2,0.2,0.3,0.3,0.5c0.1,0.3,0.2,0.5,0.4,0.8
			C29,59.6,27.2,58.1,25.8,56.2z M29.6,62.5c0.2,0,0.5-0.1,0.7-0.2c0.4,0.3,0.9,0.5,1.3,0.7c0.2,0.1,0.4,0.2,0.6,0.3
			c0,0.2,0.1,0.4,0.1,0.6c0,0.6-0.2,1.3-0.7,1.6c-0.7,0.5-1.7,0.1-2.2-0.5c-0.8-0.8-1.2-2-1.6-3.1C28.3,62.4,28.9,62.6,29.6,62.5z
			 M24,52.7c0.3,0.4,0.6,0.7,1,1c0,0.3,0,0.7,0,1C24.5,54.1,24.2,53.4,24,52.7z M24.1,55.4c-0.1-0.1-0.1-0.2-0.2-0.2
			c0,0,0.1,0,0.1,0.1C24.1,55.3,24.1,55.3,24.1,55.4z M23.3,50.6c-0.1-0.2-0.1-0.4-0.1-0.6c0.5,0.8,1.2,1.6,1.9,2.4
			c0,0.1,0,0.2,0,0.3C24.4,52,23.9,51.3,23.3,50.6z M23.1,32.8c-0.2,0.7-0.4,1.4-0.6,2c0-0.9,0-1.7,0.1-2.6c0.2-0.7,0.3-1.4,0.6-2.1
			C23.1,31.1,23,31.9,23.1,32.8z M23.2,35.2c0.1,0.6,0.2,1.2,0.3,1.8c-0.2,0.5-0.3,1.1-0.4,1.6c-0.1-0.5-0.2-0.9-0.3-1.4
			C22.9,36.6,23,35.9,23.2,35.2z M22.7,40.3c-0.1,0.4-0.2,0.9-0.2,1.3c-0.1-0.5-0.2-0.9-0.2-1.4c0-0.3,0.1-0.7,0.2-1
			C22.4,39.6,22.6,39.9,22.7,40.3z M22.1,48.2c0,0.2,0,0.4,0.1,0.7c-0.1-0.1-0.1-0.2-0.1-0.2c-0.2-0.4-0.4-0.7-0.6-1.1
			c0-0.2,0-0.4,0-0.6C21.7,47.3,21.9,47.8,22.1,48.2z M21.6,45.1c0-0.2,0-0.4,0-0.6c0.1,0.2,0.2,0.5,0.4,0.7c0,0.4,0,0.7,0,1.1
			C21.9,45.9,21.7,45.5,21.6,45.1z M22.2,29.5c-0.3,0.7-0.5,1.4-0.8,2.1c0-0.3,0.1-0.6,0.1-0.9c0.2-0.6,0.5-1.2,0.8-1.8
			C22.3,29.1,22.2,29.3,22.2,29.5z M22.4,51.7c0.4,0.7,0.7,1.5,1.1,2.2c-0.3-0.2-0.6-0.4-0.8-0.6c-0.4-0.6-0.8-1.2-1.1-1.8
			c0-0.6,0-1.1,0-1.7C21.8,50.4,22.1,51.1,22.4,51.7z M21.9,21.7c0.1-0.4,0.3-0.8,0.5-1.1c0.2-0.3,0.4-0.6,0.7-0.9
			c-0.1,0.4-0.2,0.7-0.3,1.1c-0.5,0.8-0.9,1.6-1.4,2.4C21.5,22.7,21.7,22.2,21.9,21.7z M22,23.7c-0.3,0.8-0.6,1.7-0.8,2.5
			c-0.4,0.8-0.8,1.7-1.2,2.6c0-0.2,0.1-0.3,0.1-0.5c0.1-0.4,0.3-0.8,0.4-1.2C20.9,25.9,21.4,24.8,22,23.7z M20.1,41.1
			c0.1,1.4,0.4,2.7,0.8,4c0,0.3,0,0.6-0.1,0.9c-0.4-1.2-0.7-2.4-0.9-3.7C20,41.8,20,41.5,20.1,41.1z M20,36c0-0.3,0.1-0.7,0.2-1
			c0,0.4-0.1,0.9-0.1,1.3C20.1,36.3,20,36.2,20,36z M19.7,32.3v-0.4c0.1-0.2,0.1-0.4,0.2-0.6C19.8,31.7,19.8,32,19.7,32.3z M20,46.3
			c0.2,0.6,0.4,1.2,0.6,1.7c0,0.6,0,1.2,0,1.8c-0.4-1-0.8-2-1.1-3c0-0.5,0-1,0.1-1.5C19.8,45.6,19.9,45.9,20,46.3z M20.1,51.3
			c-0.1-0.1-0.2-0.2-0.4-0.4c0-0.2,0-0.3,0-0.5C19.8,50.7,20,51,20.1,51.3z M20.8,52.9c0.1,1.1,0.1,2.1,0.3,3.2c0,0.2,0,0.4,0.1,0.6
			c-0.6-1.5-1-3-1.2-4.6C20.2,52.4,20.5,52.7,20.8,52.9z M18.1,48.9c-1.4-1.9-2.5-4.1-3.1-6.6c-1.3-5.3-0.4-10.9,1.9-15.7
			c0.9-1.9,2-3.8,3.3-5.5c-1.6,2.5-2.9,5.2-3.4,8.2c-0.3,2-0.3,4,0,5.9c0,2.4,0.3,4.8,0.8,7.2c0,0,0,0.1,0,0.1
			c0.1,1.1,0.3,2.2,0.6,3.3C18.1,46.9,18.1,47.9,18.1,48.9z M20.5,22c-0.9,1.5-1.6,3-2.2,4.6C18.8,25.1,19.6,23.5,20.5,22z
			 M17.7,36.2c-0.1-0.4-0.1-0.7-0.2-1.1c0-1.1,0.1-2.2,0.3-3.3c0.4-2.7,1.3-5.2,2.5-7.6c-0.4,1.4-0.8,2.7-1,4.1
			C18.4,30.8,17.9,33.5,17.7,36.2z M18.6,39.9c0-0.2-0.1-0.3-0.2-0.5c0-0.7,0-1.4,0-2.1c0.1-0.9,0.3-1.8,0.5-2.7
			c0,0.3,0,0.5,0.1,0.8c0,0.2,0.1,0.3,0.1,0.5c-0.1,0.8-0.2,1.7-0.3,2.5C18.7,38.8,18.6,39.4,18.6,39.9z M19,51.4
			c0.2,1.6,0.6,3.3,1.1,4.9c0.4,1.1,0.9,2.1,1.4,3.1c0.2,0.9,0.3,1.8,0.6,2.8C20.2,58.9,19.3,55.2,19,51.4z M21.7,54.2
			c1,1.7,2.3,3.1,3.8,4.3c0.2,0.7,0.5,1.4,1,2c0.4,1,0.8,2.1,1.2,3.1c0.4,0.9,0.8,1.8,1.6,2.4c1.7,1.2,3.6,0.1,3.8-1.9
			c0-0.2,0-0.4,0-0.5c0.1,0.1,0.3,0.1,0.4,0.2c0.5,0.7,1.1,1.4,1.9,1.9c1.5,1,3.5,1.4,5.5,1.4c0.1,0.2,0.2,0.4,0.3,0.5
			c-2.7,0.5-5.4,0.8-8.1,1c-0.3,0-0.6,0-0.9,0.1c-4.1-2.2-7.6-5.5-9.9-9.6C22,57.6,21.8,55.9,21.7,54.2z M25.5,67.6
			c0,0-0.1-0.1-0.1-0.1c0.2,0.2,0.5,0.4,0.7,0.6C25.9,67.9,25.7,67.7,25.5,67.6z M28.8,68.9c-2-1.2-3.8-2.8-5.3-4.6
			c-0.3-0.9-0.5-1.8-0.7-2.7c0-0.1,0-0.1,0-0.2c2.1,3,4.9,5.6,8.1,7.5C30.1,69,29.4,69,28.8,68.9z M37.7,71.9
			c-2.5-0.3-5.1-1-7.4-2.2c0.6,0,1.2,0,1.7-0.1c0.1,0,0.2,0.1,0.3,0.2C34.1,70.7,35.9,71.4,37.7,71.9C37.7,71.9,37.7,71.9,37.7,71.9
			z M42.4,72c-2.5-0.3-4.9-0.9-7.3-1.8c-0.5-0.2-1-0.4-1.6-0.7c0.3,0,0.7,0,1-0.1c2.4-0.2,4.8-0.6,7.2-1c1,1,2.2,1.7,3.6,1.9
			c2.4,0.3,4.6-1,6.3-2.6c0,0,0.1-0.1,0.1-0.1c1.6,0.1,3.2,0,4.8-0.1C52.3,69.9,47.4,71.7,42.4,72z M83.3,45.4
			c-2,6.3-5.9,11.8-10.9,16.1C65.5,67.6,56.1,72,46.7,72.2c4.2-0.9,8.2-2.7,11.8-5c2.3-0.4,4.5-1,6.6-2c3.1-1.4,5.8-3.5,8-6
			c2.4-1.1,4.3-3.1,4.6-5.9c0-0.4,0.1-0.8,0.1-1.2c0.1-0.1,0.1-0.2,0.2-0.3c1.5-3.2,2.3-6.5,2.6-9.9c0.8-1.8,1.5-3.7,2-5.6
			c0.7-2.9,0.9-5.9,0.6-8.8c-0.1-0.9-0.2-1.8-0.4-2.7c0.1,0.2,0.2,0.4,0.2,0.6C85.5,31.7,85.4,38.9,83.3,45.4z"/>
		<path fill="#414042" d="M55.3,31.3c-0.3-0.4-0.6-0.7-0.9-1.1c0-0.1,0-0.1,0.1-0.2c-1.5-1.3-3.4-2.2-5.5-2.2c-1.9,0-3.6,0.6-5,1.7
			c0.2,0,0.4,0.1,0.6,0.1c0,0.5,0,1,0.1,1.6c-1.1,0.4-2.1,1-2.9,1.8c0-0.2-0.1-0.5-0.1-0.7c-0.6,1.1-1,2.4-1,3.8c0,0,0,0.1,0,0.1
			c0.2,0.2,0.3,0.3,0.6,0.5c0.3,0.2,0.7,0.4,1.1,0.4c0.1,0.2,0.2,0.4,0.4,0.5c-0.1,0.2-0.1,0.5-0.2,0.7c-0.7-0.4-1.4-0.9-1.8-1.6
			c0,0.5,0.1,0.9,0.2,1.4c0.4,0.4,0.9,0.8,1.5,1.1c-0.1,0.8,0,1.6,0.3,2.4c1.3,1.5,3.1,2.5,5.2,2.7c0.7-0.3,1.4-0.7,2-1.2
			c0.9,0.2,1.8,0.3,2.8,0.3c1-0.5,1.9-1.3,2.6-2.1c0-0.1,0-0.1,0-0.2c0.1,0,0.1-0.1,0.2-0.1c0.4-0.5,0.7-1,0.9-1.5
			c0,0-0.1,0.1-0.1,0.1c-0.2,0.2-0.5,0.4-0.8,0.5c0-0.1,0-0.1,0-0.2c0-0.4,0-0.9,0-1.3c0.4-0.4,0.7-0.8,0.9-1.4
			c0.6-1.4,0.5-2.8-0.1-4.1c0.1,0.1,0.2,0.1,0.3,0.2c-0.3-0.8-0.7-1.6-1.3-2.3C55.3,31.1,55.3,31.2,55.3,31.3z M54.2,31.3
			C54.2,31.3,54.2,31.3,54.2,31.3C54.2,31.3,54.2,31.3,54.2,31.3C54.2,31.3,54.2,31.3,54.2,31.3z M54.4,32.2
			c0.2,0.1,0.5,0.2,0.7,0.3c0,0.2-0.1,0.3-0.1,0.5c-0.2,0.4-0.5,0.8-0.8,1.1c-0.2-0.4-0.5-0.7-0.8-1.1c0.2-0.3,0.4-0.6,0.6-1
			C54.1,32.1,54.2,32.1,54.4,32.2z M54.5,36.8c0.1,0.5,0.2,1,0.2,1.4c-0.2,0.1-0.3,0.3-0.5,0.4C54.5,38,54.5,37.4,54.5,36.8z
			 M47.1,38.7c-0.1-0.4-0.2-0.7-0.3-1.1c0.9,0.1,1.9,0,2.8-0.2C48.8,38.1,48,38.5,47.1,38.7z M49,38.8c-0.2,0.3-0.5,0.6-0.8,0.9
			c-0.1,0-0.1,0-0.2-0.1c-0.2-0.1-0.3-0.1-0.5-0.2C48.1,39.3,48.6,39,49,38.8z M51,37.2c-0.2,1.2-0.7,2.3-1.7,2.6
			C50,39,50.6,38.1,51,37.2z M48.9,35.8c-0.1,0-0.2-0.1-0.3-0.2c0.4-0.2,0.8-0.4,1.1-0.6c0.5,0,1-0.1,1.4-0.3c0,0,0,0.1,0,0.1
			c-0.1,0.4-0.3,0.8-0.4,1.2C50.1,36.1,49.5,36,48.9,35.8z M50.9,39.5c0.6-0.8,1-1.8,1.1-2.9c0.2-0.1,0.4-0.2,0.5-0.3
			c0.3-0.2,0.6-0.3,0.9-0.5c0.1,0.3,0.2,0.6,0.2,0.8c-0.3,0.6-0.6,1.3-1,1.9c-0.2,0.3-0.4,0.7-0.7,1.1c-0.5,0.1-0.9,0.2-1.4,0.2
			C50.7,39.8,50.8,39.7,50.9,39.5z M52.6,29.8c0.3,0.2,0.5,0.4,0.8,0.7c-0.1,0.2-0.2,0.4-0.3,0.5c-0.2,0-0.3-0.1-0.5-0.1
			C52.6,30.5,52.6,30.1,52.6,29.8z M52.6,31.7C52.6,31.7,52.6,31.7,52.6,31.7C52.6,31.7,52.6,31.7,52.6,31.7
			C52.6,31.7,52.6,31.7,52.6,31.7C52.5,31.7,52.6,31.7,52.6,31.7z M51.9,34.8c0.1-0.2,0.1-0.4,0.2-0.6c0.1-0.1,0.2-0.1,0.3-0.2
			c0.2,0.4,0.5,0.7,0.6,1.1c-0.1,0.1-0.3,0.2-0.4,0.3c0,0,0,0,0,0c-0.2,0.1-0.4,0.2-0.6,0.3c0-0.2,0-0.5-0.1-0.7
			C51.9,34.9,51.9,34.9,51.9,34.8z M51.8,30.4c0,0.1,0,0.2,0,0.3c-0.4-0.1-0.9-0.1-1.3-0.1c-0.1-0.1-0.2-0.2-0.3-0.3
			c0.5-0.2,1-0.3,1.5-0.4C51.7,30.1,51.8,30.2,51.8,30.4z M50.4,32.9c-1,0.3-2-0.2-2.6-1c0.7-0.3,1.5-0.2,2.2,0.3
			C50.1,32.4,50.3,32.6,50.4,32.9z M49.1,28.8c0.1-0.1,0.2-0.3,0.4-0.4c0.1,0,0.2,0,0.4,0c0.6,0.1,1,0.4,1.4,0.8
			c-0.6,0.1-1.2,0.3-1.8,0.6c-0.2-0.1-0.5-0.3-0.7-0.4C48.8,29.1,49,28.9,49.1,28.8z M48.3,28.5c-0.1,0.2-0.2,0.3-0.4,0.5
			c-0.1,0-0.2-0.1-0.4-0.1C47.8,28.7,48.1,28.6,48.3,28.5z M48.3,33.3c0.7,0.4,1.4,0.5,2,0.3c-0.3,0.2-0.6,0.4-0.9,0.6
			c-0.8,0-1.6-0.2-2.2-0.7c0.1-0.3,0.1-0.6,0.2-0.9C47.6,32.9,47.9,33.1,48.3,33.3z M48.2,34.9c-0.2,0.1-0.3,0.1-0.4,0.2
			c-0.2-0.2-0.4-0.4-0.6-0.6C47.5,34.7,47.8,34.8,48.2,34.9z M47.3,30.3c0,0.1-0.1,0.2-0.1,0.4h0c0-0.1-0.1-0.3-0.1-0.4
			C47.2,30.2,47.3,30.3,47.3,30.3z M46.9,35.3c0,0,0.1,0.1,0.1,0.1c0,0-0.1,0-0.1,0C46.8,35.4,46.8,35.4,46.9,35.3z M46.8,36.4
			c0.3-0.1,0.6-0.2,0.9-0.3c0.3,0.2,0.6,0.4,0.9,0.5c0.2,0.1,0.4,0.2,0.6,0.2c-0.8,0.1-1.6,0.2-2.4,0.1
			C46.8,36.6,46.8,36.5,46.8,36.4z M46.5,32.9c0,0,0,0.1,0,0.1C46.5,33,46.5,33,46.5,32.9C46.5,32.9,46.5,32.9,46.5,32.9z
			 M46.4,30.6c0,0,0,0.1,0,0.2c0,0-0.1,0-0.1,0C46.3,30.7,46.4,30.7,46.4,30.6z M46.2,31.6c0.1,0,0.1,0,0.2,0
			c-0.1,0.1-0.1,0.1-0.2,0.2C46.2,31.7,46.2,31.6,46.2,31.6z M46.2,34.5c-0.1,0.4-0.1,0.9-0.2,1.3c-0.1,0-0.2,0.1-0.4,0.1
			c0,0,0,0-0.1,0c0-0.4,0-0.7,0-1c0.1-0.3,0.2-0.6,0.3-0.9C46,34.1,46.1,34.3,46.2,34.5z M46,37.5L46,37.5C46,37.5,46,37.5,46,37.5
			C46,37.5,46,37.5,46,37.5z M45.9,36.6C45.9,36.6,45.9,36.6,45.9,36.6C46,36.6,46,36.6,45.9,36.6C45.9,36.6,45.9,36.6,45.9,36.6z
			 M45.3,29.8c0.1,0,0.3,0,0.4,0.1c-0.1,0.3-0.3,0.7-0.3,1.1C45.3,30.5,45.3,30.2,45.3,29.8z M41.8,36c-0.3-0.2-0.6-0.5-0.8-0.8
			c0.1-0.2,0.2-0.3,0.3-0.5c0,0,0,0,0,0l0.2,0.5C41.6,35.6,41.7,35.8,41.8,36C41.8,36,41.8,36,41.8,36z M42.1,34.4
			C42.1,34.3,42,34.1,42,34c0.8-0.8,1.8-1.5,2.9-2c0.1,0.3,0.3,0.5,0.4,0.8c-0.1,0.1-0.1,0.2-0.2,0.3c-0.6,0.8-1.2,1.6-1.7,2.5
			c-0.3-0.2-0.7-0.5-1-0.8C42.4,34.7,42.3,34.6,42.1,34.4z M43.7,37.5c0-0.1,0.1-0.3,0.1-0.4c0.2,0,0.4-0.1,0.6-0.1
			c0.1,0,0.2,0.1,0.3,0.1c0.1,0.6,0.2,1.1,0.4,1.6C44.5,38.4,44.1,37.9,43.7,37.5z M44,38.8c-0.2,0-0.4-0.1-0.6-0.2
			c0-0.1,0-0.2,0.1-0.3C43.6,38.5,43.8,38.7,44,38.8z M44.3,36c0.1-0.3,0.3-0.5,0.4-0.8c0,0.3-0.1,0.6-0.1,0.9c0,0,0,0-0.1,0
			C44.5,36.1,44.4,36.1,44.3,36z M42.9,36.3c-0.1-0.1-0.1-0.2-0.2-0.3c0.2,0.1,0.3,0.2,0.5,0.3C43.1,36.4,43,36.4,42.9,36.3z
			 M43.3,39.5c0.2,0.1,0.4,0.1,0.6,0.2c0.5,0.1,1,0.1,1.5,0.1c0.1,0,0.2,0.1,0.3,0.1c0.2,0.4,0.5,0.8,0.9,1.2
			c-0.8,0.5-1.6,0.9-2.6,1.2C43.4,41.4,43.2,40.5,43.3,39.5z M44.5,42.9c0.9-0.3,1.8-0.7,2.6-1.2c0.1,0.1,0.3,0.2,0.4,0.3
			c0.2,0.1,0.4,0.3,0.6,0.4C47,42.7,45.8,42.9,44.5,42.9C44.6,42.9,44.5,42.9,44.5,42.9z M45.8,43.7c0.6-0.1,1.2-0.2,1.8-0.3
			c0.5-0.1,0.9-0.2,1.4-0.4C47.9,43.7,46.8,44,45.8,43.7z M50.1,41.4c-0.7-0.1-1.3-0.4-1.7-0.7c0,0,0,0,0.1-0.1c0,0,0.1,0,0.1,0
			c0.8,0.1,1.8,0,2.7-0.1c-0.2,0.2-0.3,0.4-0.5,0.6c-0.2,0.1-0.3,0.2-0.5,0.3C50.3,41.4,50.2,41.4,50.1,41.4z M54.3,42.3
			c-1.2,0.3-2.4,0.3-3.5,0.1c0.1-0.1,0.1-0.1,0.2-0.2c0.4,0,0.9,0,1.3-0.1c0.8-0.1,1.5-0.4,2.3-0.7C54.4,41.8,54.4,42,54.3,42.3z
			 M54.7,40.5c-0.9,0.5-1.8,0.8-2.8,0.9c0.6-0.4,1.1-0.9,1.6-1.5c0.5-0.2,0.9-0.4,1.3-0.7C54.8,39.7,54.7,40.1,54.7,40.5z
			 M55.7,33.6c0.5,1.3,0.6,2.7-0.3,3.9c-0.1-0.6-0.3-1.2-0.5-1.8c0.2-0.5,0.4-1.1,0.5-1.6c0-0.1,0-0.1,0-0.2
			C55.6,33.8,55.6,33.7,55.7,33.6z"/>
		<path fill="#414042" d="M49.5,44.3c0.5,0,0.9-0.1,1.4-0.2C50.4,44.2,49.9,44.3,49.5,44.3z"/>
	</g>
</g>
<g id="Layer_3">
</g>
</svg>
